{"asset":{"version":"2.0","generator":"Blockbench 4.12.5 glTF exporter"},"scenes":[{"nodes":[18],"name":"blockbench_export"}],"scene":0,"nodes":[{"rotation":[-0.19509032201612825,0,0,0.9807852804032304],"translation":[0.5,0.59375,-0.421875],"name":"cube","mesh":0},{"rotation":[-0.19509032201612825,0,0,0.9807852804032304],"translation":[0.5,0.59375,-0.421875],"name":"cube","mesh":1},{"rotation":[-0.19509032201612825,0,0,0.9807852804032304],"translation":[0.5,0.59375,-0.421875],"name":"cube","mesh":2},{"rotation":[-0.19509032201612825,0,0,0.9807852804032304],"translation":[0.5,0.59375,-0.421875],"name":"cube","mesh":3},{"rotation":[-0.19509032201612825,0,0,0.9807852804032304],"translation":[0.5,0.59375,-0.421875],"name":"cube","mesh":4},{"rotation":[-0.19509032201612825,0,0,0.9807852804032304],"translation":[0.5,0.59375,-0.421875],"name":"cube","mesh":5},{"rotation":[-0.19509032201612825,0,0,0.9807852804032304],"translation":[0.5,0.59375,-0.421875],"name":"cube","mesh":6},{"translation":[0.0625,0.25,-0.1875],"name":"cube","mesh":7},{"rotation":[0,0,-0.19509032201612825,0.9807852804032304],"translation":[-0.0717531435684543,0.32677258765413375,0.375],"name":"cube","mesh":8},{"rotation":[0,0,-0.19509032201612825,0.9807852804032304],"translation":[-0.23965735975099908,-0.07266717860150962,1.0625],"name":"cube","mesh":9},{"translation":[0.0625,0.5,-0.1875],"name":"cube","mesh":10},{"translation":[0.5,0.4375,1.6035534143447876],"name":"cube","mesh":11},{"rotation":[0,0,-0.19509032201612825,0.9807852804032304],"translation":[-0.23965735975099908,-0.07266717860150962,0.4375],"name":"cube","mesh":12},{"translation":[0.5,0.4375,1.9785534143447876],"name":"cube","mesh":13},{"translation":[0.5,0.4375,2.2285534143447876],"name":"cube","mesh":14},{"rotation":[0,0,0.19509032201612825,0.9807852804032304],"translation":[1.0717531435684542,0.32677258765413375,0.375],"name":"cube","mesh":15},{"rotation":[0,0,0.19509032201612825,0.9807852804032304],"translation":[1.239657359750999,-0.07266717860150962,1.0625],"name":"cube","mesh":16},{"rotation":[0,0,0.19509032201612825,0.9807852804032304],"translation":[1.239657359750999,-0.07266717860150962,0.4375],"name":"cube","mesh":17},{"children":[0,1,2,3,4,5,6,7,8,9,10,11,12,13,14,15,16,17]}],"bufferViews":[{"buffer":0,"byteOffset":0,"byteLength":288,"target":34962,"byteStride":12},{"buffer":0,"byteOffset":288,"byteLength":288,"target":34962,"byteStride":12},{"buffer":0,"byteOffset":576,"byteLength":192,"target":34962,"byteStride":8},{"buffer":0,"byteOffset":768,"byteLength":72,"target":34963},{"buffer":0,"byteOffset":840,"byteLength":288,"target":34962,"byteStride":12},{"buffer":0,"byteOffset":1128,"byteLength":288,"target":34962,"byteStride":12},{"buffer":0,"byteOffset":1416,"byteLength":192,"target":34962,"byteStride":8},{"buffer":0,"byteOffset":1608,"byteLength":24,"target":34963},{"buffer":0,"byteOffset":1632,"byteLength":288,"target":34962,"byteStride":12},{"buffer":0,"byteOffset":1920,"byteLength":288,"target":34962,"byteStride":12},{"buffer":0,"byteOffset":2208,"byteLength":192,"target":34962,"byteStride":8},{"buffer":0,"byteOffset":2400,"byteLength":24,"target":34963},{"buffer":0,"byteOffset":2424,"byteLength":288,"target":34962,"byteStride":12},{"buffer":0,"byteOffset":2712,"byteLength":288,"target":34962,"byteStride":12},{"buffer":0,"byteOffset":3000,"byteLength":192,"target":34962,"byteStride":8},{"buffer":0,"byteOffset":3192,"byteLength":24,"target":34963},{"buffer":0,"byteOffset":3216,"byteLength":288,"target":34962,"byteStride":12},{"buffer":0,"byteOffset":3504,"byteLength":288,"target":34962,"byteStride":12},{"buffer":0,"byteOffset":3792,"byteLength":192,"target":34962,"byteStride":8},{"buffer":0,"byteOffset":3984,"byteLength":24,"target":34963},{"buffer":0,"byteOffset":4008,"byteLength":288,"target":34962,"byteStride":12},{"buffer":0,"byteOffset":4296,"byteLength":288,"target":34962,"byteStride":12},{"buffer":0,"byteOffset":4584,"byteLength":192,"target":34962,"byteStride":8},{"buffer":0,"byteOffset":4776,"byteLength":24,"target":34963},{"buffer":0,"byteOffset":4800,"byteLength":288,"target":34962,"byteStride":12},{"buffer":0,"byteOffset":5088,"byteLength":288,"target":34962,"byteStride":12},{"buffer":0,"byteOffset":5376,"byteLength":192,"target":34962,"byteStride":8},{"buffer":0,"byteOffset":5568,"byteLength":24,"target":34963},{"buffer":0,"byteOffset":5592,"byteLength":288,"target":34962,"byteStride":12},{"buffer":0,"byteOffset":5880,"byteLength":288,"target":34962,"byteStride":12},{"buffer":0,"byteOffset":6168,"byteLength":192,"target":34962,"byteStride":8},{"buffer":0,"byteOffset":6360,"byteLength":72,"target":34963},{"buffer":0,"byteOffset":6432,"byteLength":288,"target":34962,"byteStride":12},{"buffer":0,"byteOffset":6720,"byteLength":288,"target":34962,"byteStride":12},{"buffer":0,"byteOffset":7008,"byteLength":192,"target":34962,"byteStride":8},{"buffer":0,"byteOffset":7200,"byteLength":72,"target":34963},{"buffer":0,"byteOffset":7272,"byteLength":288,"target":34962,"byteStride":12},{"buffer":0,"byteOffset":7560,"byteLength":288,"target":34962,"byteStride":12},{"buffer":0,"byteOffset":7848,"byteLength":192,"target":34962,"byteStride":8},{"buffer":0,"byteOffset":8040,"byteLength":24,"target":34963},{"buffer":0,"byteOffset":8064,"byteLength":288,"target":34962,"byteStride":12},{"buffer":0,"byteOffset":8352,"byteLength":288,"target":34962,"byteStride":12},{"buffer":0,"byteOffset":8640,"byteLength":192,"target":34962,"byteStride":8},{"buffer":0,"byteOffset":8832,"byteLength":36,"target":34963},{"buffer":0,"byteOffset":8868,"byteLength":288,"target":34962,"byteStride":12},{"buffer":0,"byteOffset":9156,"byteLength":288,"target":34962,"byteStride":12},{"buffer":0,"byteOffset":9444,"byteLength":192,"target":34962,"byteStride":8},{"buffer":0,"byteOffset":9636,"byteLength":60,"target":34963},{"buffer":0,"byteOffset":9696,"byteLength":288,"target":34962,"byteStride":12},{"buffer":0,"byteOffset":9984,"byteLength":288,"target":34962,"byteStride":12},{"buffer":0,"byteOffset":10272,"byteLength":192,"target":34962,"byteStride":8},{"buffer":0,"byteOffset":10464,"byteLength":24,"target":34963},{"buffer":0,"byteOffset":10488,"byteLength":288,"target":34962,"byteStride":12},{"buffer":0,"byteOffset":10776,"byteLength":288,"target":34962,"byteStride":12},{"buffer":0,"byteOffset":11064,"byteLength":192,"target":34962,"byteStride":8},{"buffer":0,"byteOffset":11256,"byteLength":60,"target":34963},{"buffer":0,"byteOffset":11316,"byteLength":288,"target":34962,"byteStride":12},{"buffer":0,"byteOffset":11604,"byteLength":288,"target":34962,"byteStride":12},{"buffer":0,"byteOffset":11892,"byteLength":192,"target":34962,"byteStride":8},{"buffer":0,"byteOffset":12084,"byteLength":60,"target":34963},{"buffer":0,"byteOffset":12144,"byteLength":288,"target":34962,"byteStride":12},{"buffer":0,"byteOffset":12432,"byteLength":288,"target":34962,"byteStride":12},{"buffer":0,"byteOffset":12720,"byteLength":192,"target":34962,"byteStride":8},{"buffer":0,"byteOffset":12912,"byteLength":72,"target":34963},{"buffer":0,"byteOffset":12984,"byteLength":288,"target":34962,"byteStride":12},{"buffer":0,"byteOffset":13272,"byteLength":288,"target":34962,"byteStride":12},{"buffer":0,"byteOffset":13560,"byteLength":192,"target":34962,"byteStride":8},{"buffer":0,"byteOffset":13752,"byteLength":24,"target":34963},{"buffer":0,"byteOffset":13776,"byteLength":288,"target":34962,"byteStride":12},{"buffer":0,"byteOffset":14064,"byteLength":288,"target":34962,"byteStride":12},{"buffer":0,"byteOffset":14352,"byteLength":192,"target":34962,"byteStride":8},{"buffer":0,"byteOffset":14544,"byteLength":24,"target":34963}],"buffers":[{"byteLength":14568,"uri":"data:application/octet-stream;base64,"}],"accessors":[{"bufferView":0,"componentType":5126,"count":24,"max":[0.515625,0.125,0.15625],"min":[-0.515625,-0.5,-0.46875],"type":"VEC3"},{"bufferView":1,"componentType":5126,"count":24,"max":[1,1,1],"min":[-1,-1,-1],"type":"VEC3"},{"bufferView":2,"componentType":5126,"count":24,"max":[0.296875,0.0390625074505806],"min":[0,0],"type":"VEC2"},{"bufferView":3,"componentType":5123,"count":36,"max":[23],"min":[0],"type":"SCALAR"},{"bufferView":4,"componentType":5126,"count":24,"max":[-0.125,0.5,0.156312495470047],"min":[-0.5,0.125,0.15625],"type":"VEC3"},{"bufferView":5,"componentType":5126,"count":24,"max":[1,1,1],"min":[-1,-1,-1],"type":"VEC3"},{"bufferView":6,"componentType":5126,"count":24,"max":[0.78125,0.78125],"min":[0,0],"type":"VEC2"},{"bufferView":7,"componentType":5123,"count":12,"max":[23],"min":[16],"type":"SCALAR"},{"bufferView":8,"componentType":5126,"count":24,"max":[-0.5,-0.125,0.156312495470047],"min":[-0.875,-0.5,0.15625],"type":"VEC3"},{"bufferView":9,"componentType":5126,"count":24,"max":[1,1,1],"min":[-1,-1,-1],"type":"VEC3"},{"bufferView":10,"componentType":5126,"count":24,"max":[0.78125,0.78125],"min":[0,0],"type":"VEC2"},{"bufferView":11,"componentType":5123,"count":12,"max":[23],"min":[16],"type":"SCALAR"},{"bufferView":12,"componentType":5126,"count":24,"max":[-0.5,0.375,0.156312495470047],"min":[-0.875,-0.125,0.15625],"type":"VEC3"},{"bufferView":13,"componentType":5126,"count":24,"max":[1,1,1],"min":[-1,-1,-1],"type":"VEC3"},{"bufferView":14,"componentType":5126,"count":24,"max":[0.78125,0.78125],"min":[0,0],"type":"VEC2"},{"bufferView":15,"componentType":5123,"count":12,"max":[23],"min":[16],"type":"SCALAR"},{"bufferView":16,"componentType":5126,"count":24,"max":[0.875,-0.125,0.156312495470047],"min":[0.5,-0.5,0.15625],"type":"VEC3"},{"bufferView":17,"componentType":5126,"count":24,"max":[1,1,1],"min":[-1,-1,-1],"type":"VEC3"},{"bufferView":18,"componentType":5126,"count":24,"max":[0.78125,0.78125],"min":[0,0],"type":"VEC2"},{"bufferView":19,"componentType":5123,"count":12,"max":[23],"min":[16],"type":"SCALAR"},{"bufferView":20,"componentType":5126,"count":24,"max":[0.875,0.375,0.156312495470047],"min":[0.5,-0.125,0.15625],"type":"VEC3"},{"bufferView":21,"componentType":5126,"count":24,"max":[1,1,1],"min":[-1,-1,-1],"type":"VEC3"},{"bufferView":22,"componentType":5126,"count":24,"max":[0.78125,0.78125],"min":[0,0],"type":"VEC2"},{"bufferView":23,"componentType":5123,"count":12,"max":[23],"min":[16],"type":"SCALAR"},{"bufferView":24,"componentType":5126,"count":24,"max":[0.5,0.5,0.156312495470047],"min":[0.125,0.125,0.15625],"type":"VEC3"},{"bufferView":25,"componentType":5126,"count":24,"max":[1,1,1],"min":[-1,-1,-1],"type":"VEC3"},{"bufferView":26,"componentType":5126,"count":24,"max":[0.78125,0.78125],"min":[0,0],"type":"VEC2"},{"bufferView":27,"componentType":5123,"count":12,"max":[23],"min":[16],"type":"SCALAR"},{"bufferView":28,"componentType":5126,"count":24,"max":[0.9375,0.25,1.125],"min":[-0.0625,-0.0625,-0.0625],"type":"VEC3"},{"bufferView":29,"componentType":5126,"count":24,"max":[1,1,1],"min":[-1,-1,-1],"type":"VEC3"},{"bufferView":30,"componentType":5126,"count":24,"max":[0.2265625,0.1328125149011612],"min":[0,0],"type":"VEC2"},{"bufferView":31,"componentType":5123,"count":36,"max":[23],"min":[0],"type":"SCALAR"},{"bufferView":32,"componentType":5126,"count":24,"max":[0.0625,0.1875,0.578125],"min":[0,-0.1875,-0.609375],"type":"VEC3"},{"bufferView":33,"componentType":5126,"count":24,"max":[1,1,1],"min":[-1,-1,-1],"type":"VEC3"},{"bufferView":34,"componentType":5126,"count":24,"max":[0.203125,0.0859375149011612],"min":[0,0.031250014901161194],"type":"VEC2"},{"bufferView":35,"componentType":5123,"count":36,"max":[23],"min":[0],"type":"SCALAR"},{"bufferView":36,"componentType":5126,"count":24,"max":[0.031312499195337296,0.3125,-0.1875],"min":[0.03125,-0.1875,-0.5625],"type":"VEC3"},{"bufferView":37,"componentType":5126,"count":24,"max":[1,1,1],"min":[-1,-1,-1],"type":"VEC3"},{"bufferView":38,"componentType":5126,"count":24,"max":[0.78125,0.78125],"min":[0,0],"type":"VEC2"},{"bufferView":39,"componentType":5123,"count":12,"max":[7],"min":[0],"type":"SCALAR"},{"bufferView":40,"componentType":5126,"count":24,"max":[0.5,0.125,1.125],"min":[0.375,0,-0.125],"type":"VEC3"},{"bufferView":41,"componentType":5126,"count":24,"max":[1,1,1],"min":[-1,-1,-1],"type":"VEC3"},{"bufferView":42,"componentType":5126,"count":24,"max":[0.78125,0.78125],"min":[0,0],"type":"VEC2"},{"bufferView":43,"componentType":5123,"count":18,"max":[11],"min":[0],"type":"SCALAR"},{"bufferView":44,"componentType":5126,"count":24,"max":[0.0625,0.1875,-0.2910533845424652],"min":[-0.0625,-0.3125,-0.6660534143447876],"type":"VEC3"},{"bufferView":45,"componentType":5126,"count":24,"max":[1,1,1],"min":[-1,-1,-1],"type":"VEC3"},{"bufferView":46,"componentType":5126,"count":24,"max":[0.78125,0.78125],"min":[0,0],"type":"VEC2"},{"bufferView":47,"componentType":5123,"count":30,"max":[19],"min":[0],"type":"SCALAR"},{"bufferView":48,"componentType":5126,"count":24,"max":[0.031312499195337296,0.3125,-0.1875],"min":[0.03125,-0.1875,-0.5625],"type":"VEC3"},{"bufferView":49,"componentType":5126,"count":24,"max":[1,1,1],"min":[-1,-1,-1],"type":"VEC3"},{"bufferView":50,"componentType":5126,"count":24,"max":[0.78125,0.78125],"min":[0,0],"type":"VEC2"},{"bufferView":51,"componentType":5123,"count":12,"max":[7],"min":[0],"type":"SCALAR"},{"bufferView":52,"componentType":5126,"count":24,"max":[0.0625,0.0625,-0.4160533845424652],"min":[-0.0625,-0.3125,-0.6660534143447876],"type":"VEC3"},{"bufferView":53,"componentType":5126,"count":24,"max":[1,1,1],"min":[-1,-1,-1],"type":"VEC3"},{"bufferView":54,"componentType":5126,"count":24,"max":[0.78125,0.78125],"min":[0,0],"type":"VEC2"},{"bufferView":55,"componentType":5123,"count":30,"max":[19],"min":[0],"type":"SCALAR"},{"bufferView":56,"componentType":5126,"count":24,"max":[0.0625,-0.0625,-0.5410534143447876],"min":[-0.0625,-0.3125,-0.6660534143447876],"type":"VEC3"},{"bufferView":57,"componentType":5126,"count":24,"max":[1,1,1],"min":[-1,-1,-1],"type":"VEC3"},{"bufferView":58,"componentType":5126,"count":24,"max":[0.78125,0.78125],"min":[0,0],"type":"VEC2"},{"bufferView":59,"componentType":5123,"count":30,"max":[19],"min":[0],"type":"SCALAR"},{"bufferView":60,"componentType":5126,"count":24,"max":[0,0.1875,0.578125],"min":[-0.0625,-0.1875,-0.609375],"type":"VEC3"},{"bufferView":61,"componentType":5126,"count":24,"max":[1,1,1],"min":[-1,-1,-1],"type":"VEC3"},{"bufferView":62,"componentType":5126,"count":24,"max":[0.203125,0.0859375149011612],"min":[0,0.031250014901161194],"type":"VEC2"},{"bufferView":63,"componentType":5123,"count":36,"max":[23],"min":[0],"type":"SCALAR"},{"bufferView":64,"componentType":5126,"count":24,"max":[-0.031187500804662704,0.3125,-0.1875],"min":[-0.03125,-0.1875,-0.5625],"type":"VEC3"},{"bufferView":65,"componentType":5126,"count":24,"max":[1,1,1],"min":[-1,-1,-1],"type":"VEC3"},{"bufferView":66,"componentType":5126,"count":24,"max":[0.78125,0.78125],"min":[0,0],"type":"VEC2"},{"bufferView":67,"componentType":5123,"count":12,"max":[7],"min":[0],"type":"SCALAR"},{"bufferView":68,"componentType":5126,"count":24,"max":[-0.031187500804662704,0.3125,-0.1875],"min":[-0.03125,-0.1875,-0.5625],"type":"VEC3"},{"bufferView":69,"componentType":5126,"count":24,"max":[1,1,1],"min":[-1,-1,-1],"type":"VEC3"},{"bufferView":70,"componentType":5126,"count":24,"max":[0.78125,0.78125],"min":[0,0],"type":"VEC2"},{"bufferView":71,"componentType":5123,"count":12,"max":[7],"min":[0],"type":"SCALAR"}],"materials":[{"pbrMetallicRoughness":{"metallicFactor":0,"roughnessFactor":1,"baseColorTexture":{"index":0}},"alphaMode":"MASK","alphaCutoff":0.05}],"textures":[{"sampler":0,"source":0,"name":"axolotl_txt.png"}],"samplers":[{"magFilter":9728,"minFilter":9728,"wrapS":33071,"wrapT":33071}],"images":[{"mimeType":"image/png","uri":"data:image/png;base64,"}],"meshes":[{"primitives":[{"mode":4,"attributes":{"POSITION":0,"NORMAL":1,"TEXCOORD_0":2},"indices":3,"material":0}]},{"primitives":[{"mode":4,"attributes":{"POSITION":4,"NORMAL":5,"TEXCOORD_0":6},"indices":7,"material":0}]},{"primitives":[{"mode":4,"attributes":{"POSITION":8,"NORMAL":9,"TEXCOORD_0":10},"indices":11,"material":0}]},{"primitives":[{"mode":4,"attributes":{"POSITION":12,"NORMAL":13,"TEXCOORD_0":14},"indices":15,"material":0}]},{"primitives":[{"mode":4,"attributes":{"POSITION":16,"NORMAL":17,"TEXCOORD_0":18},"indices":19,"material":0}]},{"primitives":[{"mode":4,"attributes":{"POSITION":20,"NORMAL":21,"TEXCOORD_0":22},"indices":23,"material":0}]},{"primitives":[{"mode":4,"attributes":{"POSITION":24,"NORMAL":25,"TEXCOORD_0":26},"indices":27,"material":0}]},{"primitives":[{"mode":4,"attributes":{"POSITION":28,"NORMAL":29,"TEXCOORD_0":30},"indices":31,"material":0}]},{"primitives":[{"mode":4,"attributes":{"POSITION":32,"NORMAL":33,"TEXCOORD_0":34},"indices":35,"material":0}]},{"primitives":[{"mode":4,"attributes":{"POSITION":36,"NORMAL":37,"TEXCOORD_0":38},"indices":39,"material":0}]},{"primitives":[{"mode":4,"attributes":{"POSITION":40,"NORMAL":41,"TEXCOORD_0":42},"indices":43,"material":0}]},{"primitives":[{"mode":4,"attributes":{"POSITION":44,"NORMAL":45,"TEXCOORD_0":46},"indices":47,"material":0}]},{"primitives":[{"mode":4,"attributes":{"POSITION":48,"NORMAL":49,"TEXCOORD_0":50},"indices":51,"material":0}]},{"primitives":[{"mode":4,"attributes":{"POSITION":52,"NORMAL":53,"TEXCOORD_0":54},"indices":55,"material":0}]},{"primitives":[{"mode":4,"attributes":{"POSITION":56,"NORMAL":57,"TEXCOORD_0":58},"indices":59,"material":0}]},{"primitives":[{"mode":4,"attributes":{"POSITION":60,"NORMAL":61,"TEXCOORD_0":62},"indices":63,"material":0}]},{"primitives":[{"mode":4,"attributes":{"POSITION":64,"NORMAL":65,"TEXCOORD_0":66},"indices":67,"material":0}]},{"primitives":[{"mode":4,"attributes":{"POSITION":68,"NORMAL":69,"TEXCOORD_0":70},"indices":71,"material":0}]}]}