{"asset":{"version":"2.0","generator":"Blockbench 4.12.5 glTF exporter"},"scenes":[{"nodes":[25],"name":"blockbench_export"}],"scene":0,"nodes":[{"translation":[0.40625,-1,0.65625],"name":"cube","mesh":0},{"translation":[0.40625,-0.625,0.65625],"name":"cube","mesh":1},{"translation":[0.40625,-0.5625,0.65625],"name":"cube","mesh":2},{"translation":[0.40625,-0.5,0.65625],"name":"cube","mesh":3},{"translation":[0.40625,0.875,0.65625],"name":"cube","mesh":4},{"translation":[0.40625,1,0.65625],"name":"cube","mesh":5},{"translation":[0.40625,1.625,0.65625],"name":"cube","mesh":6},{"translation":[0.40625,1.75,0.65625],"name":"cube","mesh":7},{"translation":[0.40625,1.125,0.65625],"name":"cube","mesh":8},{"translation":[0.40625,1.328125,0.671875],"name":"cube","mesh":9},{"translation":[0.40625,1.328125,1.015625],"name":"cube","mesh":10},{"translation":[0.328125,1.359375,0.5],"name":"cube","mesh":11},{"translation":[0.671875,1.359375,0.5],"name":"cube","mesh":12},{"translation":[0.6796875,1.359375,0.47812500000000013],"name":"cube","mesh":13},{"translation":[0.6796875,1.359375,0.303125],"name":"cube","mesh":14},{"translation":[0.3203125,1.359375,0.303125],"name":"cube","mesh":15},{"translation":[0.3203125,1.359375,0.47812500000000013],"name":"cube","mesh":16},{"translation":[0.5000000000000001,1.3828125,0.6796874999999999],"name":"cube","mesh":17},{"translation":[0.5000000000000001,1.3828125,0.6796874999999999],"name":"cube","mesh":18},{"translation":[0.5000000000000001,1.3828125,0.3203125000000001],"name":"cube","mesh":19},{"translation":[0.5000000000000001,1.3828125,0.3203125000000001],"name":"cube","mesh":20},{"rotation":[0,0.3826834323650898,0,0.9238795325112867],"translation":[0.647549152351682,0.625,0.35045995705504407],"name":"cube","mesh":21},{"rotation":[0,-0.3826834323650898,0,0.9238795325112867],"translation":[0.352450847648318,0.625,0.35045995705504407],"name":"cube","mesh":22},{"rotation":[0,0.3826834323650898,0,0.9238795325112867],"translation":[0.352450847648318,0.625,0.6495400429449559],"name":"cube","mesh":23},{"rotation":[0,-0.3826834323650898,0,0.9238795325112867],"translation":[0.647549152351682,0.625,0.6495400429449559],"name":"cube","mesh":24},{"children":[0,1,2,3,4,5,6,7,8,9,10,11,12,13,14,15,16,17,18,19,20,21,22,23,24]}],"bufferViews":[{"buffer":0,"byteOffset":0,"byteLength":288,"target":34962,"byteStride":12},{"buffer":0,"byteOffset":288,"byteLength":288,"target":34962,"byteStride":12},{"buffer":0,"byteOffset":576,"byteLength":192,"target":34962,"byteStride":8},{"buffer":0,"byteOffset":768,"byteLength":72,"target":34963},{"buffer":0,"byteOffset":840,"byteLength":288,"target":34962,"byteStride":12},{"buffer":0,"byteOffset":1128,"byteLength":288,"target":34962,"byteStride":12},{"buffer":0,"byteOffset":1416,"byteLength":192,"target":34962,"byteStride":8},{"buffer":0,"byteOffset":1608,"byteLength":48,"target":34963},{"buffer":0,"byteOffset":1656,"byteLength":288,"target":34962,"byteStride":12},{"buffer":0,"byteOffset":1944,"byteLength":288,"target":34962,"byteStride":12},{"buffer":0,"byteOffset":2232,"byteLength":192,"target":34962,"byteStride":8},{"buffer":0,"byteOffset":2424,"byteLength":72,"target":34963},{"buffer":0,"byteOffset":2496,"byteLength":288,"target":34962,"byteStride":12},{"buffer":0,"byteOffset":2784,"byteLength":288,"target":34962,"byteStride":12},{"buffer":0,"byteOffset":3072,"byteLength":192,"target":34962,"byteStride":8},{"buffer":0,"byteOffset":3264,"byteLength":48,"target":34963},{"buffer":0,"byteOffset":3312,"byteLength":288,"target":34962,"byteStride":12},{"buffer":0,"byteOffset":3600,"byteLength":288,"target":34962,"byteStride":12},{"buffer":0,"byteOffset":3888,"byteLength":192,"target":34962,"byteStride":8},{"buffer":0,"byteOffset":4080,"byteLength":60,"target":34963},{"buffer":0,"byteOffset":4140,"byteLength":288,"target":34962,"byteStride":12},{"buffer":0,"byteOffset":4428,"byteLength":288,"target":34962,"byteStride":12},{"buffer":0,"byteOffset":4716,"byteLength":192,"target":34962,"byteStride":8},{"buffer":0,"byteOffset":4908,"byteLength":72,"target":34963},{"buffer":0,"byteOffset":4980,"byteLength":288,"target":34962,"byteStride":12},{"buffer":0,"byteOffset":5268,"byteLength":288,"target":34962,"byteStride":12},{"buffer":0,"byteOffset":5556,"byteLength":192,"target":34962,"byteStride":8},{"buffer":0,"byteOffset":5748,"byteLength":72,"target":34963},{"buffer":0,"byteOffset":5820,"byteLength":288,"target":34962,"byteStride":12},{"buffer":0,"byteOffset":6108,"byteLength":288,"target":34962,"byteStride":12},{"buffer":0,"byteOffset":6396,"byteLength":192,"target":34962,"byteStride":8},{"buffer":0,"byteOffset":6588,"byteLength":60,"target":34963},{"buffer":0,"byteOffset":6648,"byteLength":288,"target":34962,"byteStride":12},{"buffer":0,"byteOffset":6936,"byteLength":288,"target":34962,"byteStride":12},{"buffer":0,"byteOffset":7224,"byteLength":192,"target":34962,"byteStride":8},{"buffer":0,"byteOffset":7416,"byteLength":48,"target":34963},{"buffer":0,"byteOffset":7464,"byteLength":288,"target":34962,"byteStride":12},{"buffer":0,"byteOffset":7752,"byteLength":288,"target":34962,"byteStride":12},{"buffer":0,"byteOffset":8040,"byteLength":192,"target":34962,"byteStride":8},{"buffer":0,"byteOffset":8232,"byteLength":24,"target":34963},{"buffer":0,"byteOffset":8256,"byteLength":288,"target":34962,"byteStride":12},{"buffer":0,"byteOffset":8544,"byteLength":288,"target":34962,"byteStride":12},{"buffer":0,"byteOffset":8832,"byteLength":192,"target":34962,"byteStride":8},{"buffer":0,"byteOffset":9024,"byteLength":24,"target":34963},{"buffer":0,"byteOffset":9048,"byteLength":288,"target":34962,"byteStride":12},{"buffer":0,"byteOffset":9336,"byteLength":288,"target":34962,"byteStride":12},{"buffer":0,"byteOffset":9624,"byteLength":192,"target":34962,"byteStride":8},{"buffer":0,"byteOffset":9816,"byteLength":24,"target":34963},{"buffer":0,"byteOffset":9840,"byteLength":288,"target":34962,"byteStride":12},{"buffer":0,"byteOffset":10128,"byteLength":288,"target":34962,"byteStride":12},{"buffer":0,"byteOffset":10416,"byteLength":192,"target":34962,"byteStride":8},{"buffer":0,"byteOffset":10608,"byteLength":24,"target":34963},{"buffer":0,"byteOffset":10632,"byteLength":288,"target":34962,"byteStride":12},{"buffer":0,"byteOffset":10920,"byteLength":288,"target":34962,"byteStride":12},{"buffer":0,"byteOffset":11208,"byteLength":192,"target":34962,"byteStride":8},{"buffer":0,"byteOffset":11400,"byteLength":24,"target":34963},{"buffer":0,"byteOffset":11424,"byteLength":288,"target":34962,"byteStride":12},{"buffer":0,"byteOffset":11712,"byteLength":288,"target":34962,"byteStride":12},{"buffer":0,"byteOffset":12000,"byteLength":192,"target":34962,"byteStride":8},{"buffer":0,"byteOffset":12192,"byteLength":24,"target":34963},{"buffer":0,"byteOffset":12216,"byteLength":288,"target":34962,"byteStride":12},{"buffer":0,"byteOffset":12504,"byteLength":288,"target":34962,"byteStride":12},{"buffer":0,"byteOffset":12792,"byteLength":192,"target":34962,"byteStride":8},{"buffer":0,"byteOffset":12984,"byteLength":24,"target":34963},{"buffer":0,"byteOffset":13008,"byteLength":288,"target":34962,"byteStride":12},{"buffer":0,"byteOffset":13296,"byteLength":288,"target":34962,"byteStride":12},{"buffer":0,"byteOffset":13584,"byteLength":192,"target":34962,"byteStride":8},{"buffer":0,"byteOffset":13776,"byteLength":24,"target":34963},{"buffer":0,"byteOffset":13800,"byteLength":288,"target":34962,"byteStride":12},{"buffer":0,"byteOffset":14088,"byteLength":288,"target":34962,"byteStride":12},{"buffer":0,"byteOffset":14376,"byteLength":192,"target":34962,"byteStride":8},{"buffer":0,"byteOffset":14568,"byteLength":24,"target":34963},{"buffer":0,"byteOffset":14592,"byteLength":288,"target":34962,"byteStride":12},{"buffer":0,"byteOffset":14880,"byteLength":288,"target":34962,"byteStride":12},{"buffer":0,"byteOffset":15168,"byteLength":192,"target":34962,"byteStride":8},{"buffer":0,"byteOffset":15360,"byteLength":24,"target":34963},{"buffer":0,"byteOffset":15384,"byteLength":288,"target":34962,"byteStride":12},{"buffer":0,"byteOffset":15672,"byteLength":288,"target":34962,"byteStride":12},{"buffer":0,"byteOffset":15960,"byteLength":192,"target":34962,"byteStride":8},{"buffer":0,"byteOffset":16152,"byteLength":24,"target":34963},{"buffer":0,"byteOffset":16176,"byteLength":288,"target":34962,"byteStride":12},{"buffer":0,"byteOffset":16464,"byteLength":288,"target":34962,"byteStride":12},{"buffer":0,"byteOffset":16752,"byteLength":192,"target":34962,"byteStride":8},{"buffer":0,"byteOffset":16944,"byteLength":24,"target":34963},{"buffer":0,"byteOffset":16968,"byteLength":288,"target":34962,"byteStride":12},{"buffer":0,"byteOffset":17256,"byteLength":288,"target":34962,"byteStride":12},{"buffer":0,"byteOffset":17544,"byteLength":192,"target":34962,"byteStride":8},{"buffer":0,"byteOffset":17736,"byteLength":24,"target":34963},{"buffer":0,"byteOffset":17760,"byteLength":288,"target":34962,"byteStride":12},{"buffer":0,"byteOffset":18048,"byteLength":288,"target":34962,"byteStride":12},{"buffer":0,"byteOffset":18336,"byteLength":192,"target":34962,"byteStride":8},{"buffer":0,"byteOffset":18528,"byteLength":24,"target":34963},{"buffer":0,"byteOffset":18552,"byteLength":288,"target":34962,"byteStride":12},{"buffer":0,"byteOffset":18840,"byteLength":288,"target":34962,"byteStride":12},{"buffer":0,"byteOffset":19128,"byteLength":192,"target":34962,"byteStride":8},{"buffer":0,"byteOffset":19320,"byteLength":24,"target":34963},{"buffer":0,"byteOffset":19344,"byteLength":288,"target":34962,"byteStride":12},{"buffer":0,"byteOffset":19632,"byteLength":288,"target":34962,"byteStride":12},{"buffer":0,"byteOffset":19920,"byteLength":192,"target":34962,"byteStride":8},{"buffer":0,"byteOffset":20112,"byteLength":24,"target":34963}],"buffers":[{"byteLength":20136,"uri":"data:application/octet-stream;base64,"}],"accessors":[{"bufferView":0,"componentType":5126,"count":24,"max":[0.1875,0.375,-0.0625],"min":[0,0,-0.25],"type":"VEC3"},{"bufferView":1,"componentType":5126,"count":24,"max":[1,1,1],"min":[-1,-1,-1],"type":"VEC3"},{"bufferView":2,"componentType":5126,"count":24,"max":[0.1015625,0.1015625],"min":[0,0],"type":"VEC2"},{"bufferView":3,"componentType":5123,"count":36,"max":[23],"min":[0],"type":"SCALAR"},{"bufferView":4,"componentType":5126,"count":24,"max":[0.15625,0.0625,-0.09375],"min":[0.03125,0,-0.21875],"type":"VEC3"},{"bufferView":5,"componentType":5126,"count":24,"max":[1,1,1],"min":[-1,-1,-1],"type":"VEC3"},{"bufferView":6,"componentType":5126,"count":24,"max":[0.78125,0.78125],"min":[0,0],"type":"VEC2"},{"bufferView":7,"componentType":5123,"count":24,"max":[23],"min":[0],"type":"SCALAR"},{"bufferView":8,"componentType":5126,"count":24,"max":[0.1875,0.0625,-0.0625],"min":[0,0,-0.25],"type":"VEC3"},{"bufferView":9,"componentType":5126,"count":24,"max":[1,1,1],"min":[-1,-1,-1],"type":"VEC3"},{"bufferView":10,"componentType":5126,"count":24,"max":[0.1953125,0.015624985098838806],"min":[0.1484375,0],"type":"VEC2"},{"bufferView":11,"componentType":5123,"count":36,"max":[23],"min":[0],"type":"SCALAR"},{"bufferView":12,"componentType":5126,"count":24,"max":[0.15625,1.375,-0.09375],"min":[0.03125,0,-0.21875],"type":"VEC3"},{"bufferView":13,"componentType":5126,"count":24,"max":[1,1,1],"min":[-1,-1,-1],"type":"VEC3"},{"bufferView":14,"componentType":5126,"count":24,"max":[0.78125,0.78125],"min":[0,0],"type":"VEC2"},{"bufferView":15,"componentType":5123,"count":24,"max":[23],"min":[0],"type":"SCALAR"},{"bufferView":16,"componentType":5126,"count":24,"max":[0.1875,0.125,-0.0625],"min":[0,0,-0.25],"type":"VEC3"},{"bufferView":17,"componentType":5126,"count":24,"max":[1,1,1],"min":[-1,-1,-1],"type":"VEC3"},{"bufferView":18,"componentType":5126,"count":24,"max":[0.78125,0.78125],"min":[0,0],"type":"VEC2"},{"bufferView":19,"componentType":5123,"count":30,"max":[23],"min":[0],"type":"SCALAR"},{"bufferView":20,"componentType":5126,"count":24,"max":[0.28125,0.125,0.03125],"min":[-0.09375,0,-0.34375],"type":"VEC3"},{"bufferView":21,"componentType":5126,"count":24,"max":[1,1,1],"min":[-1,-1,-1],"type":"VEC3"},{"bufferView":22,"componentType":5126,"count":24,"max":[0.40625,0.1328125149011612],"min":[0.3125,0],"type":"VEC2"},{"bufferView":23,"componentType":5123,"count":36,"max":[23],"min":[0],"type":"SCALAR"},{"bufferView":24,"componentType":5126,"count":24,"max":[0.3125,0.125,0.0625],"min":[-0.125,0,-0.375],"type":"VEC3"},{"bufferView":25,"componentType":5126,"count":24,"max":[1,1,1],"min":[-1,-1,-1],"type":"VEC3"},{"bufferView":26,"componentType":5126,"count":24,"max":[0.4218750298023224,0.328125],"min":[0.3125,0.140625],"type":"VEC2"},{"bufferView":27,"componentType":5123,"count":36,"max":[23],"min":[0],"type":"SCALAR"},{"bufferView":28,"componentType":5126,"count":24,"max":[0.25,0.125,0],"min":[-0.0625,0,-0.3125],"type":"VEC3"},{"bufferView":29,"componentType":5126,"count":24,"max":[1,1,1],"min":[-1,-1,-1],"type":"VEC3"},{"bufferView":30,"componentType":5126,"count":24,"max":[0.78125,0.78125],"min":[0,0],"type":"VEC2"},{"bufferView":31,"componentType":5123,"count":30,"max":[23],"min":[0],"type":"SCALAR"},{"bufferView":32,"componentType":5126,"count":24,"max":[0.25,0.5,0],"min":[-0.0625,0,-0.3125],"type":"VEC3"},{"bufferView":33,"componentType":5126,"count":24,"max":[1,1,1],"min":[-1,-1,-1],"type":"VEC3"},{"bufferView":34,"componentType":5126,"count":24,"max":[0.78125,0.78125],"min":[0,0],"type":"VEC2"},{"bufferView":35,"componentType":5123,"count":24,"max":[23],"min":[0],"type":"SCALAR"},{"bufferView":36,"componentType":5126,"count":24,"max":[0.265625,0.0625,-0.343687504529953],"min":[-0.078125,0,-0.34375],"type":"VEC3"},{"bufferView":37,"componentType":5126,"count":24,"max":[1,1,1],"min":[-1,-1,-1],"type":"VEC3"},{"bufferView":38,"componentType":5126,"count":24,"max":[0.78125,0.78125],"min":[0,0],"type":"VEC2"},{"bufferView":39,"componentType":5123,"count":12,"max":[23],"min":[16],"type":"SCALAR"},{"bufferView":40,"componentType":5126,"count":24,"max":[0.265625,0.0625,-0.343687504529953],"min":[-0.078125,0,-0.34375],"type":"VEC3"},{"bufferView":41,"componentType":5126,"count":24,"max":[1,1,1],"min":[-1,-1,-1],"type":"VEC3"},{"bufferView":42,"componentType":5126,"count":24,"max":[0.78125,0.78125],"min":[0,0],"type":"VEC2"},{"bufferView":43,"componentType":5123,"count":12,"max":[23],"min":[16],"type":"SCALAR"},{"bufferView":44,"componentType":5126,"count":24,"max":[0.0000625000029685907,0.03125,0.171875],"min":[0,-0.03125,-0.171875],"type":"VEC3"},{"bufferView":45,"componentType":5126,"count":24,"max":[1,1,1],"min":[-1,-1,-1],"type":"VEC3"},{"bufferView":46,"componentType":5126,"count":24,"max":[0.78125,0.78125],"min":[0,0],"type":"VEC2"},{"bufferView":47,"componentType":5123,"count":12,"max":[7],"min":[0],"type":"SCALAR"},{"bufferView":48,"componentType":5126,"count":24,"max":[0.0000625000029685907,0.03125,0.171875],"min":[0,-0.03125,-0.171875],"type":"VEC3"},{"bufferView":49,"componentType":5126,"count":24,"max":[1,1,1],"min":[-1,-1,-1],"type":"VEC3"},{"bufferView":50,"componentType":5126,"count":24,"max":[0.78125,0.78125],"min":[0,0],"type":"VEC2"},{"bufferView":51,"componentType":5123,"count":12,"max":[7],"min":[0],"type":"SCALAR"},{"bufferView":52,"componentType":5126,"count":24,"max":[0.0000625000029685907,0.28125,0.140625],"min":[0,-0.234375,0.078125],"type":"VEC3"},{"bufferView":53,"componentType":5126,"count":24,"max":[1,1,1],"min":[-1,-1,-1],"type":"VEC3"},{"bufferView":54,"componentType":5126,"count":24,"max":[0.78125,0.78125],"min":[0,0],"type":"VEC2"},{"bufferView":55,"componentType":5123,"count":12,"max":[7],"min":[0],"type":"SCALAR"},{"bufferView":56,"componentType":5126,"count":24,"max":[0.0000625000029685907,0.28125,0.140625],"min":[0,-0.234375,0.078125],"type":"VEC3"},{"bufferView":57,"componentType":5126,"count":24,"max":[1,1,1],"min":[-1,-1,-1],"type":"VEC3"},{"bufferView":58,"componentType":5126,"count":24,"max":[0.78125,0.78125],"min":[0,0],"type":"VEC2"},{"bufferView":59,"componentType":5123,"count":12,"max":[7],"min":[0],"type":"SCALAR"},{"bufferView":60,"componentType":5126,"count":24,"max":[0.0000625000029685907,0.28125,0.140625],"min":[0,-0.234375,0.078125],"type":"VEC3"},{"bufferView":61,"componentType":5126,"count":24,"max":[1,1,1],"min":[-1,-1,-1],"type":"VEC3"},{"bufferView":62,"componentType":5126,"count":24,"max":[0.78125,0.78125],"min":[0,0],"type":"VEC2"},{"bufferView":63,"componentType":5123,"count":12,"max":[7],"min":[0],"type":"SCALAR"},{"bufferView":64,"componentType":5126,"count":24,"max":[0.0000625000029685907,0.28125,0.140625],"min":[0,-0.234375,0.078125],"type":"VEC3"},{"bufferView":65,"componentType":5126,"count":24,"max":[1,1,1],"min":[-1,-1,-1],"type":"VEC3"},{"bufferView":66,"componentType":5126,"count":24,"max":[0.78125,0.78125],"min":[0,0],"type":"VEC2"},{"bufferView":67,"componentType":5123,"count":12,"max":[7],"min":[0],"type":"SCALAR"},{"bufferView":68,"componentType":5126,"count":24,"max":[-0.05624999850988388,0.2578125,0.0000625000029685907],"min":[-0.11874999850988388,-0.2578125,0],"type":"VEC3"},{"bufferView":69,"componentType":5126,"count":24,"max":[1,1,1],"min":[-1,-1,-1],"type":"VEC3"},{"bufferView":70,"componentType":5126,"count":24,"max":[0.78125,0.78125],"min":[0,0],"type":"VEC2"},{"bufferView":71,"componentType":5123,"count":12,"max":[23],"min":[16],"type":"SCALAR"},{"bufferView":72,"componentType":5126,"count":24,"max":[0.11874999850988388,0.2578125,0.0000625000029685907],"min":[0.05624999850988388,-0.2578125,0],"type":"VEC3"},{"bufferView":73,"componentType":5126,"count":24,"max":[1,1,1],"min":[-1,-1,-1],"type":"VEC3"},{"bufferView":74,"componentType":5126,"count":24,"max":[0.78125,0.78125],"min":[0,0],"type":"VEC2"},{"bufferView":75,"componentType":5123,"count":12,"max":[23],"min":[16],"type":"SCALAR"},{"bufferView":76,"componentType":5126,"count":24,"max":[-0.05624999850988388,0.2578125,0.0000625000029685907],"min":[-0.11874999850988388,-0.2578125,0],"type":"VEC3"},{"bufferView":77,"componentType":5126,"count":24,"max":[1,1,1],"min":[-1,-1,-1],"type":"VEC3"},{"bufferView":78,"componentType":5126,"count":24,"max":[0.78125,0.78125],"min":[0,0],"type":"VEC2"},{"bufferView":79,"componentType":5123,"count":12,"max":[23],"min":[16],"type":"SCALAR"},{"bufferView":80,"componentType":5126,"count":24,"max":[0.11874999850988388,0.2578125,0.0000625000029685907],"min":[0.05624999850988388,-0.2578125,0],"type":"VEC3"},{"bufferView":81,"componentType":5126,"count":24,"max":[1,1,1],"min":[-1,-1,-1],"type":"VEC3"},{"bufferView":82,"componentType":5126,"count":24,"max":[0.78125,0.78125],"min":[0,0],"type":"VEC2"},{"bufferView":83,"componentType":5123,"count":12,"max":[23],"min":[16],"type":"SCALAR"},{"bufferView":84,"componentType":5126,"count":24,"max":[0.125,0.234375,0.0000625000029685907],"min":[-0.125,-0.234375,5.551115123125783e-17],"type":"VEC3"},{"bufferView":85,"componentType":5126,"count":24,"max":[1,1,1],"min":[-1,-1,-1],"type":"VEC3"},{"bufferView":86,"componentType":5126,"count":24,"max":[0.78125,0.78125],"min":[0,0],"type":"VEC2"},{"bufferView":87,"componentType":5123,"count":12,"max":[23],"min":[16],"type":"SCALAR"},{"bufferView":88,"componentType":5126,"count":24,"max":[0.125,0.234375,0.0000625000029685907],"min":[-0.125,-0.234375,5.551115123125783e-17],"type":"VEC3"},{"bufferView":89,"componentType":5126,"count":24,"max":[1,1,1],"min":[-1,-1,-1],"type":"VEC3"},{"bufferView":90,"componentType":5126,"count":24,"max":[0.78125,0.78125],"min":[0,0],"type":"VEC2"},{"bufferView":91,"componentType":5123,"count":12,"max":[23],"min":[16],"type":"SCALAR"},{"bufferView":92,"componentType":5126,"count":24,"max":[0.125,0.234375,0.0000625000029685907],"min":[-0.125,-0.234375,-1.1102230246251565e-16],"type":"VEC3"},{"bufferView":93,"componentType":5126,"count":24,"max":[1,1,1],"min":[-1,-1,-1],"type":"VEC3"},{"bufferView":94,"componentType":5126,"count":24,"max":[0.78125,0.78125],"min":[0,0],"type":"VEC2"},{"bufferView":95,"componentType":5123,"count":12,"max":[23],"min":[16],"type":"SCALAR"},{"bufferView":96,"componentType":5126,"count":24,"max":[0.125,0.234375,0.0000625000029685907],"min":[-0.125,-0.234375,-1.1102230246251565e-16],"type":"VEC3"},{"bufferView":97,"componentType":5126,"count":24,"max":[1,1,1],"min":[-1,-1,-1],"type":"VEC3"},{"bufferView":98,"componentType":5126,"count":24,"max":[0.78125,0.78125],"min":[0,0],"type":"VEC2"},{"bufferView":99,"componentType":5123,"count":12,"max":[23],"min":[16],"type":"SCALAR"}],"materials":[{"pbrMetallicRoughness":{"metallicFactor":0,"roughnessFactor":1,"baseColorTexture":{"index":0}},"alphaMode":"MASK","alphaCutoff":0.05}],"textures":[{"sampler":0,"source":0,"name":"lampa2_txt.png"}],"samplers":[{"magFilter":9728,"minFilter":9728,"wrapS":33071,"wrapT":33071}],"images":[{"mimeType":"image/png","uri":"data:image/png;base64,"}],"meshes":[{"primitives":[{"mode":4,"attributes":{"POSITION":0,"NORMAL":1,"TEXCOORD_0":2},"indices":3,"material":0}]},{"primitives":[{"mode":4,"attributes":{"POSITION":4,"NORMAL":5,"TEXCOORD_0":6},"indices":7,"material":0}]},{"primitives":[{"mode":4,"attributes":{"POSITION":8,"NORMAL":9,"TEXCOORD_0":10},"indices":11,"material":0}]},{"primitives":[{"mode":4,"attributes":{"POSITION":12,"NORMAL":13,"TEXCOORD_0":14},"indices":15,"material":0}]},{"primitives":[{"mode":4,"attributes":{"POSITION":16,"NORMAL":17,"TEXCOORD_0":18},"indices":19,"material":0}]},{"primitives":[{"mode":4,"attributes":{"POSITION":20,"NORMAL":21,"TEXCOORD_0":22},"indices":23,"material":0}]},{"primitives":[{"mode":4,"attributes":{"POSITION":24,"NORMAL":25,"TEXCOORD_0":26},"indices":27,"material":0}]},{"primitives":[{"mode":4,"attributes":{"POSITION":28,"NORMAL":29,"TEXCOORD_0":30},"indices":31,"material":0}]},{"primitives":[{"mode":4,"attributes":{"POSITION":32,"NORMAL":33,"TEXCOORD_0":34},"indices":35,"material":0}]},{"primitives":[{"mode":4,"attributes":{"POSITION":36,"NORMAL":37,"TEXCOORD_0":38},"indices":39,"material":0}]},{"primitives":[{"mode":4,"attributes":{"POSITION":40,"NORMAL":41,"TEXCOORD_0":42},"indices":43,"material":0}]},{"primitives":[{"mode":4,"attributes":{"POSITION":44,"NORMAL":45,"TEXCOORD_0":46},"indices":47,"material":0}]},{"primitives":[{"mode":4,"attributes":{"POSITION":48,"NORMAL":49,"TEXCOORD_0":50},"indices":51,"material":0}]},{"primitives":[{"mode":4,"attributes":{"POSITION":52,"NORMAL":53,"TEXCOORD_0":54},"indices":55,"material":0}]},{"primitives":[{"mode":4,"attributes":{"POSITION":56,"NORMAL":57,"TEXCOORD_0":58},"indices":59,"material":0}]},{"primitives":[{"mode":4,"attributes":{"POSITION":60,"NORMAL":61,"TEXCOORD_0":62},"indices":63,"material":0}]},{"primitives":[{"mode":4,"attributes":{"POSITION":64,"NORMAL":65,"TEXCOORD_0":66},"indices":67,"material":0}]},{"primitives":[{"mode":4,"attributes":{"POSITION":68,"NORMAL":69,"TEXCOORD_0":70},"indices":71,"material":0}]},{"primitives":[{"mode":4,"attributes":{"POSITION":72,"NORMAL":73,"TEXCOORD_0":74},"indices":75,"material":0}]},{"primitives":[{"mode":4,"attributes":{"POSITION":76,"NORMAL":77,"TEXCOORD_0":78},"indices":79,"material":0}]},{"primitives":[{"mode":4,"attributes":{"POSITION":80,"NORMAL":81,"TEXCOORD_0":82},"indices":83,"material":0}]},{"primitives":[{"mode":4,"attributes":{"POSITION":84,"NORMAL":85,"TEXCOORD_0":86},"indices":87,"material":0}]},{"primitives":[{"mode":4,"attributes":{"POSITION":88,"NORMAL":89,"TEXCOORD_0":90},"indices":91,"material":0}]},{"primitives":[{"mode":4,"attributes":{"POSITION":92,"NORMAL":93,"TEXCOORD_0":94},"indices":95,"material":0}]},{"primitives":[{"mode":4,"attributes":{"POSITION":96,"NORMAL":97,"TEXCOORD_0":98},"indices":99,"material":0}]}]}