{"asset":{"version":"2.0","generator":"Blockbench 4.12.5 glTF exporter"},"scenes":[{"nodes":[20],"name":"blockbench_export"}],"scene":0,"nodes":[{"translation":[0.25,0,0.1875],"name":"cube","mesh":0},{"rotation":[0,0,-0.19509032201612825,0.9807852804032304],"translation":[0.5625,0.625390625,0.45859375],"name":"cube","mesh":1},{"rotation":[0,0,-0.19509032201612825,0.9807852804032304],"translation":[0.5625,0.625390625,0.45859375],"name":"cube","mesh":2},{"rotation":[0,0,-0.19509032201612825,0.9807852804032304],"translation":[0.8125,0.296875,0.3125],"name":"cube","mesh":3},{"rotation":[0,0,-0.19509032201612825,0.9807852804032304],"translation":[0.5625,0.625390625,0.45859375],"name":"cube","mesh":4},{"rotation":[0,0.19509032201612825,0,0.9807852804032304],"translation":[0.75,0.09375,0.515625],"name":"cube","mesh":5},{"rotation":[0,-0.19509032201612825,0,0.9807852804032304],"translation":[0.25,0.09375,0.515625],"name":"cube","mesh":6},{"rotation":[0,0,0.19509032201612825,0.9807852804032304],"translation":[0.1875,0.296875,0.3125],"name":"cube","mesh":7},{"rotation":[0,0,-0.19509032201612825,0.9807852804032304],"translation":[0.5625,0.625390625,0.45859375],"name":"cube","mesh":8},{"rotation":[0,0,-0.19509032201612825,0.9807852804032304],"translation":[0.5625,0.625390625,0.45859375],"name":"cube","mesh":9},{"rotation":[0,0,-0.19509032201612825,0.9807852804032304],"translation":[0.5625,0.625390625,0.45859375],"name":"cube","mesh":10},{"rotation":[0,0,-0.19509032201612825,0.9807852804032304],"translation":[0.5625,0.625390625,0.45859375],"name":"cube","mesh":11},{"rotation":[0,0,-0.19509032201612825,0.9807852804032304],"translation":[0.5625,0.625390625,0.45859375],"name":"cube","mesh":12},{"rotation":[0,0,-0.19509032201612825,0.9807852804032304],"translation":[0.5625,0.625390625,0.45859375],"name":"cube","mesh":13},{"rotation":[0,0,-0.19509032201612825,0.9807852804032304],"translation":[0.5625,0.625390625,0.45859375],"name":"cube","mesh":14},{"rotation":[0,0,-0.19509032201612825,0.9807852804032304],"translation":[0.5625,0.625390625,0.45859375],"name":"cube","mesh":15},{"rotation":[0,0,-0.19509032201612825,0.9807852804032304],"translation":[0.5625,0.625390625,0.45859375],"name":"cube","mesh":16},{"rotation":[0,0,-0.19509032201612825,0.9807852804032304],"translation":[0.5625,0.625390625,0.45859375],"name":"cube","mesh":17},{"rotation":[0,0,-0.19509032201612825,0.9807852804032304],"translation":[0.5625,0.625390625,0.45859375],"name":"cube","mesh":18},{"translation":[0.5,0.6875,0.125],"name":"group"},{"children":[0,1,2,3,4,5,6,7,8,9,10,11,12,13,14,15,16,17,18,19]}],"bufferViews":[{"buffer":0,"byteOffset":0,"byteLength":288,"target":34962,"byteStride":12},{"buffer":0,"byteOffset":288,"byteLength":288,"target":34962,"byteStride":12},{"buffer":0,"byteOffset":576,"byteLength":192,"target":34962,"byteStride":8},{"buffer":0,"byteOffset":768,"byteLength":72,"target":34963},{"buffer":0,"byteOffset":840,"byteLength":288,"target":34962,"byteStride":12},{"buffer":0,"byteOffset":1128,"byteLength":288,"target":34962,"byteStride":12},{"buffer":0,"byteOffset":1416,"byteLength":192,"target":34962,"byteStride":8},{"buffer":0,"byteOffset":1608,"byteLength":72,"target":34963},{"buffer":0,"byteOffset":1680,"byteLength":288,"target":34962,"byteStride":12},{"buffer":0,"byteOffset":1968,"byteLength":288,"target":34962,"byteStride":12},{"buffer":0,"byteOffset":2256,"byteLength":192,"target":34962,"byteStride":8},{"buffer":0,"byteOffset":2448,"byteLength":60,"target":34963},{"buffer":0,"byteOffset":2508,"byteLength":288,"target":34962,"byteStride":12},{"buffer":0,"byteOffset":2796,"byteLength":288,"target":34962,"byteStride":12},{"buffer":0,"byteOffset":3084,"byteLength":192,"target":34962,"byteStride":8},{"buffer":0,"byteOffset":3276,"byteLength":60,"target":34963},{"buffer":0,"byteOffset":3336,"byteLength":288,"target":34962,"byteStride":12},{"buffer":0,"byteOffset":3624,"byteLength":288,"target":34962,"byteStride":12},{"buffer":0,"byteOffset":3912,"byteLength":192,"target":34962,"byteStride":8},{"buffer":0,"byteOffset":4104,"byteLength":72,"target":34963},{"buffer":0,"byteOffset":4176,"byteLength":288,"target":34962,"byteStride":12},{"buffer":0,"byteOffset":4464,"byteLength":288,"target":34962,"byteStride":12},{"buffer":0,"byteOffset":4752,"byteLength":192,"target":34962,"byteStride":8},{"buffer":0,"byteOffset":4944,"byteLength":60,"target":34963},{"buffer":0,"byteOffset":5004,"byteLength":288,"target":34962,"byteStride":12},{"buffer":0,"byteOffset":5292,"byteLength":288,"target":34962,"byteStride":12},{"buffer":0,"byteOffset":5580,"byteLength":192,"target":34962,"byteStride":8},{"buffer":0,"byteOffset":5772,"byteLength":60,"target":34963},{"buffer":0,"byteOffset":5832,"byteLength":288,"target":34962,"byteStride":12},{"buffer":0,"byteOffset":6120,"byteLength":288,"target":34962,"byteStride":12},{"buffer":0,"byteOffset":6408,"byteLength":192,"target":34962,"byteStride":8},{"buffer":0,"byteOffset":6600,"byteLength":60,"target":34963},{"buffer":0,"byteOffset":6660,"byteLength":288,"target":34962,"byteStride":12},{"buffer":0,"byteOffset":6948,"byteLength":288,"target":34962,"byteStride":12},{"buffer":0,"byteOffset":7236,"byteLength":192,"target":34962,"byteStride":8},{"buffer":0,"byteOffset":7428,"byteLength":72,"target":34963},{"buffer":0,"byteOffset":7500,"byteLength":288,"target":34962,"byteStride":12},{"buffer":0,"byteOffset":7788,"byteLength":288,"target":34962,"byteStride":12},{"buffer":0,"byteOffset":8076,"byteLength":192,"target":34962,"byteStride":8},{"buffer":0,"byteOffset":8268,"byteLength":72,"target":34963},{"buffer":0,"byteOffset":8340,"byteLength":288,"target":34962,"byteStride":12},{"buffer":0,"byteOffset":8628,"byteLength":288,"target":34962,"byteStride":12},{"buffer":0,"byteOffset":8916,"byteLength":192,"target":34962,"byteStride":8},{"buffer":0,"byteOffset":9108,"byteLength":72,"target":34963},{"buffer":0,"byteOffset":9180,"byteLength":288,"target":34962,"byteStride":12},{"buffer":0,"byteOffset":9468,"byteLength":288,"target":34962,"byteStride":12},{"buffer":0,"byteOffset":9756,"byteLength":192,"target":34962,"byteStride":8},{"buffer":0,"byteOffset":9948,"byteLength":72,"target":34963},{"buffer":0,"byteOffset":10020,"byteLength":288,"target":34962,"byteStride":12},{"buffer":0,"byteOffset":10308,"byteLength":288,"target":34962,"byteStride":12},{"buffer":0,"byteOffset":10596,"byteLength":192,"target":34962,"byteStride":8},{"buffer":0,"byteOffset":10788,"byteLength":60,"target":34963},{"buffer":0,"byteOffset":10848,"byteLength":288,"target":34962,"byteStride":12},{"buffer":0,"byteOffset":11136,"byteLength":288,"target":34962,"byteStride":12},{"buffer":0,"byteOffset":11424,"byteLength":192,"target":34962,"byteStride":8},{"buffer":0,"byteOffset":11616,"byteLength":60,"target":34963},{"buffer":0,"byteOffset":11676,"byteLength":288,"target":34962,"byteStride":12},{"buffer":0,"byteOffset":11964,"byteLength":288,"target":34962,"byteStride":12},{"buffer":0,"byteOffset":12252,"byteLength":192,"target":34962,"byteStride":8},{"buffer":0,"byteOffset":12444,"byteLength":72,"target":34963},{"buffer":0,"byteOffset":12516,"byteLength":288,"target":34962,"byteStride":12},{"buffer":0,"byteOffset":12804,"byteLength":288,"target":34962,"byteStride":12},{"buffer":0,"byteOffset":13092,"byteLength":192,"target":34962,"byteStride":8},{"buffer":0,"byteOffset":13284,"byteLength":72,"target":34963},{"buffer":0,"byteOffset":13356,"byteLength":288,"target":34962,"byteStride":12},{"buffer":0,"byteOffset":13644,"byteLength":288,"target":34962,"byteStride":12},{"buffer":0,"byteOffset":13932,"byteLength":192,"target":34962,"byteStride":8},{"buffer":0,"byteOffset":14124,"byteLength":72,"target":34963},{"buffer":0,"byteOffset":14196,"byteLength":288,"target":34962,"byteStride":12},{"buffer":0,"byteOffset":14484,"byteLength":288,"target":34962,"byteStride":12},{"buffer":0,"byteOffset":14772,"byteLength":192,"target":34962,"byteStride":8},{"buffer":0,"byteOffset":14964,"byteLength":72,"target":34963},{"buffer":0,"byteOffset":15036,"byteLength":288,"target":34962,"byteStride":12},{"buffer":0,"byteOffset":15324,"byteLength":288,"target":34962,"byteStride":12},{"buffer":0,"byteOffset":15612,"byteLength":192,"target":34962,"byteStride":8},{"buffer":0,"byteOffset":15804,"byteLength":72,"target":34963}],"buffers":[{"byteLength":15876,"uri":"data:application/octet-stream;base64,"}],"accessors":[{"bufferView":0,"componentType":5126,"count":24,"max":[0.5,0.5,0.3125],"min":[0,0,0],"type":"VEC3"},{"bufferView":1,"componentType":5126,"count":24,"max":[1,1,1],"min":[-1,-1,-1],"type":"VEC3"},{"bufferView":2,"componentType":5126,"count":24,"max":[0.3671875,0.0546874925494194],"min":[0,0],"type":"VEC2"},{"bufferView":3,"componentType":5123,"count":36,"max":[23],"min":[0],"type":"SCALAR"},{"bufferView":4,"componentType":5126,"count":24,"max":[0.1875,0.15585938096046448,0.07265625149011612],"min":[-0.1875,-0.21914061903953552,-0.3023437559604645],"type":"VEC3"},{"bufferView":5,"componentType":5126,"count":24,"max":[1,1,1],"min":[-1,-1,-1],"type":"VEC3"},{"bufferView":6,"componentType":5126,"count":24,"max":[0.3671875,0.1093749850988388],"min":[0,0],"type":"VEC2"},{"bufferView":7,"componentType":5123,"count":36,"max":[23],"min":[0],"type":"SCALAR"},{"bufferView":8,"componentType":5126,"count":24,"max":[0.1875,-0.03164062649011612,0.13515624403953552],"min":[-0.1875,-0.21914061903953552,0.07265625149011612],"type":"VEC3"},{"bufferView":9,"componentType":5126,"count":24,"max":[1,1,1],"min":[-1,-1,-1],"type":"VEC3"},{"bufferView":10,"componentType":5126,"count":24,"max":[0.78125,0.78125],"min":[0,0],"type":"VEC2"},{"bufferView":11,"componentType":5123,"count":30,"max":[19],"min":[0],"type":"SCALAR"},{"bufferView":12,"componentType":5126,"count":24,"max":[0.15625,0.09375,0.09375],"min":[-0.15625,-0.09375,-0.09375],"type":"VEC3"},{"bufferView":13,"componentType":5126,"count":24,"max":[1,1,1],"min":[-1,-1,-1],"type":"VEC3"},{"bufferView":14,"componentType":5126,"count":24,"max":[0.0703125,0.203125],"min":[0,0.1328125149011612],"type":"VEC2"},{"bufferView":15,"componentType":5123,"count":30,"max":[23],"min":[0],"type":"SCALAR"},{"bufferView":16,"componentType":5126,"count":24,"max":[0.3125,0.21835938096046448,-0.05234374850988388],"min":[0.0625,-0.03164062649011612,-0.11484374850988388],"type":"VEC3"},{"bufferView":17,"componentType":5126,"count":24,"max":[1,1,1],"min":[-1,-1,-1],"type":"VEC3"},{"bufferView":18,"componentType":5126,"count":24,"max":[0.1875,0.1484375],"min":[0.1171875074505806,0.1171874850988388],"type":"VEC2"},{"bufferView":19,"componentType":5123,"count":36,"max":[23],"min":[0],"type":"SCALAR"},{"bufferView":20,"componentType":5126,"count":24,"max":[0.03125,0.09375,0.15625],"min":[-0.15625,-0.09375,-0.09375],"type":"VEC3"},{"bufferView":21,"componentType":5126,"count":24,"max":[1,1,1],"min":[-1,-1,-1],"type":"VEC3"},{"bufferView":22,"componentType":5126,"count":24,"max":[0.1875,0.203125],"min":[0.03125,0.1640624850988388],"type":"VEC2"},{"bufferView":23,"componentType":5123,"count":30,"max":[19],"min":[0],"type":"SCALAR"},{"bufferView":24,"componentType":5126,"count":24,"max":[0.15625,0.09375,0.15625],"min":[-0.03125,-0.09375,-0.09375],"type":"VEC3"},{"bufferView":25,"componentType":5126,"count":24,"max":[1,1,1],"min":[-1,-1,-1],"type":"VEC3"},{"bufferView":26,"componentType":5126,"count":24,"max":[0.1875,0.203125],"min":[0.03125,0.1640624850988388],"type":"VEC2"},{"bufferView":27,"componentType":5123,"count":30,"max":[19],"min":[0],"type":"SCALAR"},{"bufferView":28,"componentType":5126,"count":24,"max":[0.15625,0.09375,0.09375],"min":[-0.15625,-0.09375,-0.09375],"type":"VEC3"},{"bufferView":29,"componentType":5126,"count":24,"max":[1,1,1],"min":[-1,-1,-1],"type":"VEC3"},{"bufferView":30,"componentType":5126,"count":24,"max":[0.0703125,0.203125],"min":[0,0.1328125149011612],"type":"VEC2"},{"bufferView":31,"componentType":5123,"count":30,"max":[23],"min":[4],"type":"SCALAR"},{"bufferView":32,"componentType":5126,"count":24,"max":[0.3125,0.09335937350988388,-0.03671874850988388],"min":[0.25,-0.03164062649011612,-0.05234374850988388],"type":"VEC3"},{"bufferView":33,"componentType":5126,"count":24,"max":[1,1,1],"min":[-1,-1,-1],"type":"VEC3"},{"bufferView":34,"componentType":5126,"count":24,"max":[0.1875,0.1484375],"min":[0.1171875074505806,0.1171874850988388],"type":"VEC2"},{"bufferView":35,"componentType":5123,"count":36,"max":[23],"min":[0],"type":"SCALAR"},{"bufferView":36,"componentType":5126,"count":24,"max":[0.1875,0.21835938096046448,-0.03671874850988388],"min":[0.0625,0.15585938096046448,-0.05234374850988388],"type":"VEC3"},{"bufferView":37,"componentType":5126,"count":24,"max":[1,1,1],"min":[-1,-1,-1],"type":"VEC3"},{"bufferView":38,"componentType":5126,"count":24,"max":[0.1875,0.1484375],"min":[0.1171875074505806,0.1171874850988388],"type":"VEC2"},{"bufferView":39,"componentType":5123,"count":36,"max":[23],"min":[0],"type":"SCALAR"},{"bufferView":40,"componentType":5126,"count":24,"max":[0.3125,0.21835938096046448,-0.02109375037252903],"min":[0.25,0.09335937350988388,-0.05234374850988388],"type":"VEC3"},{"bufferView":41,"componentType":5126,"count":24,"max":[1,1,1],"min":[-1,-1,-1],"type":"VEC3"},{"bufferView":42,"componentType":5126,"count":24,"max":[0.1875,0.1484375],"min":[0.1328125,0.1171874850988388],"type":"VEC2"},{"bufferView":43,"componentType":5123,"count":36,"max":[23],"min":[0],"type":"SCALAR"},{"bufferView":44,"componentType":5126,"count":24,"max":[0.25,0.21835938096046448,-0.02109375037252903],"min":[0.1875,0.15585938096046448,-0.05234374850988388],"type":"VEC3"},{"bufferView":45,"componentType":5126,"count":24,"max":[1,1,1],"min":[-1,-1,-1],"type":"VEC3"},{"bufferView":46,"componentType":5126,"count":24,"max":[0.1875,0.1484375],"min":[0.1328125,0.1171874850988388],"type":"VEC2"},{"bufferView":47,"componentType":5123,"count":36,"max":[23],"min":[0],"type":"SCALAR"},{"bufferView":48,"componentType":5126,"count":24,"max":[0.125,-0.15664061903953552,0.14140625298023224],"min":[-0.125,-0.21914061903953552,0.13515624403953552],"type":"VEC3"},{"bufferView":49,"componentType":5126,"count":24,"max":[1,1,1],"min":[-1,-1,-1],"type":"VEC3"},{"bufferView":50,"componentType":5126,"count":24,"max":[0.78125,0.78125],"min":[0,0],"type":"VEC2"},{"bufferView":51,"componentType":5123,"count":30,"max":[19],"min":[0],"type":"SCALAR"},{"bufferView":52,"componentType":5126,"count":24,"max":[0.0625,-0.09414062649011612,0.14140625298023224],"min":[-0.0625,-0.15664061903953552,0.13515624403953552],"type":"VEC3"},{"bufferView":53,"componentType":5126,"count":24,"max":[1,1,1],"min":[-1,-1,-1],"type":"VEC3"},{"bufferView":54,"componentType":5126,"count":24,"max":[0.78125,0.78125],"min":[0,0],"type":"VEC2"},{"bufferView":55,"componentType":5123,"count":30,"max":[19],"min":[0],"type":"SCALAR"},{"bufferView":56,"componentType":5126,"count":24,"max":[-0.0625,0.21835938096046448,-0.05234374850988388],"min":[-0.3125,-0.03164062649011612,-0.11484374850988388],"type":"VEC3"},{"bufferView":57,"componentType":5126,"count":24,"max":[1,1,1],"min":[-1,-1,-1],"type":"VEC3"},{"bufferView":58,"componentType":5126,"count":24,"max":[0.1875,0.1484375],"min":[0.1171875074505806,0.1171874850988388],"type":"VEC2"},{"bufferView":59,"componentType":5123,"count":36,"max":[23],"min":[0],"type":"SCALAR"},{"bufferView":60,"componentType":5126,"count":24,"max":[-0.25,0.09335937350988388,-0.03671874850988388],"min":[-0.3125,-0.03164062649011612,-0.05234374850988388],"type":"VEC3"},{"bufferView":61,"componentType":5126,"count":24,"max":[1,1,1],"min":[-1,-1,-1],"type":"VEC3"},{"bufferView":62,"componentType":5126,"count":24,"max":[0.1875,0.1484375],"min":[0.1171875074505806,0.1171874850988388],"type":"VEC2"},{"bufferView":63,"componentType":5123,"count":36,"max":[23],"min":[0],"type":"SCALAR"},{"bufferView":64,"componentType":5126,"count":24,"max":[-0.25,0.21835938096046448,-0.02109375037252903],"min":[-0.3125,0.09335937350988388,-0.05234374850988388],"type":"VEC3"},{"bufferView":65,"componentType":5126,"count":24,"max":[1,1,1],"min":[-1,-1,-1],"type":"VEC3"},{"bufferView":66,"componentType":5126,"count":24,"max":[0.1875,0.1484375],"min":[0.1328125,0.1171874850988388],"type":"VEC2"},{"bufferView":67,"componentType":5123,"count":36,"max":[23],"min":[0],"type":"SCALAR"},{"bufferView":68,"componentType":5126,"count":24,"max":[-0.1875,0.21835938096046448,-0.02109375037252903],"min":[-0.25,0.15585938096046448,-0.05234374850988388],"type":"VEC3"},{"bufferView":69,"componentType":5126,"count":24,"max":[1,1,1],"min":[-1,-1,-1],"type":"VEC3"},{"bufferView":70,"componentType":5126,"count":24,"max":[0.1875,0.1484375],"min":[0.1328125,0.1171874850988388],"type":"VEC2"},{"bufferView":71,"componentType":5123,"count":36,"max":[23],"min":[0],"type":"SCALAR"},{"bufferView":72,"componentType":5126,"count":24,"max":[-0.0625,0.21835938096046448,-0.03671874850988388],"min":[-0.1875,0.15585938096046448,-0.05234374850988388],"type":"VEC3"},{"bufferView":73,"componentType":5126,"count":24,"max":[1,1,1],"min":[-1,-1,-1],"type":"VEC3"},{"bufferView":74,"componentType":5126,"count":24,"max":[0.1875,0.1484375],"min":[0.1171875074505806,0.1171874850988388],"type":"VEC2"},{"bufferView":75,"componentType":5123,"count":36,"max":[23],"min":[0],"type":"SCALAR"}],"materials":[{"pbrMetallicRoughness":{"metallicFactor":0,"roughnessFactor":1,"baseColorTexture":{"index":0}},"alphaMode":"MASK","alphaCutoff":0.05}],"textures":[{"sampler":0,"source":0,"name":"teddy_bear.png"}],"samplers":[{"magFilter":9728,"minFilter":9728,"wrapS":33071,"wrapT":33071}],"images":[{"mimeType":"image/png","uri":"data:image/png;base64,"}],"meshes":[{"primitives":[{"mode":4,"attributes":{"POSITION":0,"NORMAL":1,"TEXCOORD_0":2},"indices":3,"material":0}]},{"primitives":[{"mode":4,"attributes":{"POSITION":4,"NORMAL":5,"TEXCOORD_0":6},"indices":7,"material":0}]},{"primitives":[{"mode":4,"attributes":{"POSITION":8,"NORMAL":9,"TEXCOORD_0":10},"indices":11,"material":0}]},{"primitives":[{"mode":4,"attributes":{"POSITION":12,"NORMAL":13,"TEXCOORD_0":14},"indices":15,"material":0}]},{"primitives":[{"mode":4,"attributes":{"POSITION":16,"NORMAL":17,"TEXCOORD_0":18},"indices":19,"material":0}]},{"primitives":[{"mode":4,"attributes":{"POSITION":20,"NORMAL":21,"TEXCOORD_0":22},"indices":23,"material":0}]},{"primitives":[{"mode":4,"attributes":{"POSITION":24,"NORMAL":25,"TEXCOORD_0":26},"indices":27,"material":0}]},{"primitives":[{"mode":4,"attributes":{"POSITION":28,"NORMAL":29,"TEXCOORD_0":30},"indices":31,"material":0}]},{"primitives":[{"mode":4,"attributes":{"POSITION":32,"NORMAL":33,"TEXCOORD_0":34},"indices":35,"material":0}]},{"primitives":[{"mode":4,"attributes":{"POSITION":36,"NORMAL":37,"TEXCOORD_0":38},"indices":39,"material":0}]},{"primitives":[{"mode":4,"attributes":{"POSITION":40,"NORMAL":41,"TEXCOORD_0":42},"indices":43,"material":0}]},{"primitives":[{"mode":4,"attributes":{"POSITION":44,"NORMAL":45,"TEXCOORD_0":46},"indices":47,"material":0}]},{"primitives":[{"mode":4,"attributes":{"POSITION":48,"NORMAL":49,"TEXCOORD_0":50},"indices":51,"material":0}]},{"primitives":[{"mode":4,"attributes":{"POSITION":52,"NORMAL":53,"TEXCOORD_0":54},"indices":55,"material":0}]},{"primitives":[{"mode":4,"attributes":{"POSITION":56,"NORMAL":57,"TEXCOORD_0":58},"indices":59,"material":0}]},{"primitives":[{"mode":4,"attributes":{"POSITION":60,"NORMAL":61,"TEXCOORD_0":62},"indices":63,"material":0}]},{"primitives":[{"mode":4,"attributes":{"POSITION":64,"NORMAL":65,"TEXCOORD_0":66},"indices":67,"material":0}]},{"primitives":[{"mode":4,"attributes":{"POSITION":68,"NORMAL":69,"TEXCOORD_0":70},"indices":71,"material":0}]},{"primitives":[{"mode":4,"attributes":{"POSITION":72,"NORMAL":73,"TEXCOORD_0":74},"indices":75,"material":0}]}]}