<svg id="Warstwa_1" data-name="Warstwa 1" xmlns="http://www.w3.org/2000/svg" viewBox="0 0 1451.1 1120.88"><defs><style>.cls-1{fill:#fff;stroke:#fff;stroke-miterlimit:10;stroke-width:28px;}</style></defs><path class="cls-1" d="M-842.45-458c-11,1.3-22.1,5.8-40.5,16.2-10.1,5.7-14.5,8.1-33,18.3-8.2,4.5-16.6,9.2-18.5,10.3-3.7,2.2-4.1,2.4-16.5,9.1-4.4,2.4-8.4,4.7-9,5.1s-3.7,2.2-7,4-8,4.4-10.5,5.8-11,6.1-19,10.5c-20.6,11.3-24.6,13.5-30.1,16.8-2.7,1.5-7.9,4.5-11.6,6.4s-8.1,4.4-9.8,5.4-6.5,3.6-10.7,5.9-12,6.7-17.4,9.7-9.8,5.5-10,5.5-3.8,2-8,4.5-7.7,4.5-7.9,4.5-6.4,3.4-28,15.5c-4.3,2.4-30.4,16.8-39.5,21.8-28.4,15.5-41.9,31.5-49.7,58.7-1.7,6.2-1.8,14.9-1.8,198.5,0,182.2.1,192.3,1.8,198,5.4,18.1,11.1,28.3,21.6,39,7.3,7.4,15,12.8,31.1,21.6,6.3,3.4,13.1,7.1,15,8.2,7,3.9,20.6,11.5,27.5,15.2,3.9,2.1,8.4,4.6,10,5.6s4.6,2.6,6.5,3.7,7.8,4.3,13,7.2,12,6.7,15,8.3,6,3.3,6.5,3.7c1,.7,5.9,3.5,19,10.5,3.9,2.1,7.5,4.1,8,4.5s3.7,2.2,7,4,8,4.4,10.5,5.8,8.8,4.8,14,7.7c10.8,5.9,16.3,9,27,15,4.1,2.3,10.7,5.9,14.5,8s8.4,4.6,10,5.6,4.8,2.7,7,3.9c12.6,6.9,31.9,17.7,35.5,19.9,1.9,1.1,4.2,2.4,5,2.8s4.9,2.5,9,4.8,10.7,5.9,14.5,8,8.4,4.6,10,5.6c22.8,13.5,40.3,18,60.2,15.8,15.5-1.7,23.8-4.9,48.1-18.6,8-4.5,15.5-8.7,27.2-15,1.4-.8,4.1-2.3,6-3.5s10.3-5.8,18.5-10.3,16.8-9.2,19-10.5,8.1-4.5,13-7.3c10.1-5.6,18.1-10,24-13.3,7.8-4.4,14.5-8.1,25.4-14,2.5-1.4,6-3.3,7.6-4.3s6.2-3.5,10-5.5,7.5-4.2,8-4.6,4-2.3,7.8-4.4c16-8.6,20.4-11.1,23.9-13.3A29.31,29.31,0,0,1-579,280a59.07,59.07,0,0,0,6.3-3.3c3.2-1.9,9.2-5.2,13.3-7.4s9.9-5.5,12.8-7.2,5.4-3.1,5.6-3.1,6.3-3.4,13.6-7.5,13.4-7.5,13.6-7.5a56.64,56.64,0,0,0,5.2-2.9c2.7-1.6,7.5-4.3,10.6-6s8.1-4.5,11.3-6.2c13.6-7.5,22.2-14.9,30.8-26.4,9.5-12.7,14.2-25.2,15.6-42,.6-6.7.8-83.4.6-195-.3-183.6-.3-184-2.4-191.1-6-20.2-17.6-36.7-33-47.2-5.5-3.7-28.7-17.1-41.8-24.1-3.3-1.8-7.3-4-9-5s-6.1-3.5-10-5.6-11-6-16-8.8-11.5-6.4-14.5-8-7.2-4.1-9.2-5.4a29.31,29.31,0,0,0-4.2-2.3c-.2,0-5.8-3-12.3-6.6-13.8-7.8-17.8-10-25.3-14.1-3-1.7-9.8-5.4-15-8.3s-12-6.7-15-8.3-7.2-4.1-9.2-5.4a29.31,29.31,0,0,0-4.2-2.3c-.4,0-6-3.1-28.1-15.5-2.2-1.3-10.5-5.9-18.5-10.2s-16.5-9.2-19-10.5c-4.6-2.6-29.8-16.6-36-20-1.9-1.1-4.8-2.7-6.5-3.7-3.2-1.9-14.7-8.1-22.9-12.5a80,80,0,0,0-33.2-8.9A118.89,118.89,0,0,0-842.45-458Zm29.5,42.4c3.3,1.6,12.1,6.3,19.5,10.4s16,8.8,19,10.5,6,3.3,6.5,3.7,4.2,2.4,8,4.5c10.7,5.8,17.3,9.4,22.7,12.6a51.73,51.73,0,0,0,5.3,2.9,59.69,59.69,0,0,1,5.7,3.1c5.1,3.1,13,7.4,21.8,12.1,2.5,1.3,8.2,4.5,12.7,7.1s14.6,8.2,22.5,12.5,16.1,8.9,18.3,10.2c5.7,3.2,28.5,15.9,36,20,2.2,1.2,5.4,2.9,7,3.9s6.2,3.5,10,5.6,10.4,5.7,14.5,8,8.2,4.5,9,4.8,3.1,1.7,5,2.8,10.3,5.9,18.5,10.4c24.1,13.2,25,13.7,26,14.5s15.2,8.5,19.8,10.8c3.7,1.9,3.4,3.7-1.3,6.7a27,27,0,0,1-4.4,2.5c-.2,0-4.7,2.5-10,5.5s-13.2,7.4-17.4,9.7-9,4.9-10.7,5.9-6.1,3.4-10,5.5-7.4,4-8,4.4-4.6,2.7-9,5-9.3,5.1-11,6.1-4.6,2.6-6.5,3.7-7.5,4.2-12.5,6.9-11.1,6.2-13.7,7.7-6.9,3.8-9.5,5.2-8.8,4.9-13.8,7.7-10.6,5.9-12.5,6.9-5.3,2.9-7.5,4.2c-8.3,4.6-15.3,8.5-24,13.3-4.9,2.8-11,6.2-13.5,7.5-9.3,5.2-28.3,15.8-37.4,20.8-3.2,1.7-8.1,4.5-10.8,6.1a56.64,56.64,0,0,1-5.2,2.9c-.2,0-5.7,3-12.2,6.6-18.3,10.3-19,10.7-33.9,18.9-20.3,11.2-23.6,13.1-27.2,15.1-3,1.8-3.4,1.8-6,.3-1.5-.9-5.5-3.1-8.8-4.9s-6.4-3.6-7-4-4.1-2.4-8-4.5c-13-7-18-9.8-19-10.5-.5-.4-4.1-2.4-8-4.5-6.8-3.7-29.4-16.1-38.5-21.2-10-5.6-30.7-17.1-36.5-20.3-2.2-1.2-5.3-2.9-7-3.9s-6.1-3.5-10-5.6-12.2-6.7-18.5-10.3-14.9-8.3-19-10.5-9.6-5.3-12.3-6.8a37.45,37.45,0,0,0-5.2-2.9,51.73,51.73,0,0,1-5.3-2.9c-2.7-1.6-7.5-4.3-10.6-6-7.9-4.4-15.4-8.5-20.4-11.2-2.4-1.3-5.1-2.9-6-3.4-1.6-1-30.8-17.2-40.2-22.3-2.5-1.4-4.9-2.8-5.5-3.2s-4.1-2.4-8-4.5-9.4-5.1-12.2-6.6-7.9-4.3-11-6c-10.8-5.9-10.8-6.4,0-12,4.5-2.3,9.9-5.3,11.9-6.6a33.79,33.79,0,0,1,4.3-2.3c.2,0,3.9-2,8.1-4.5s7.7-4.5,7.9-4.5a64.11,64.11,0,0,0,6.2-3.4c3.2-1.8,8.7-4.9,12.3-6.8s14.2-7.8,23.5-13,19.7-11,23-12.8,6.5-3.6,7-4,5.1-2.9,10-5.5,11.9-6.5,15.5-8.5,8.5-4.9,11-6.3c19.7-10.9,33.3-18.4,38-20.9,3-1.7,6-3.4,6.5-3.8s5.1-2.9,10-5.5,11.6-6.3,14.8-8.1a50.44,50.44,0,0,1,6.3-3.4c.2,0,2.1-1.1,4.2-2.3s10.7-6.2,19.2-10.9,17.3-9.5,19.5-10.8c4.6-2.6,19.3-10.8,27.5-15.3,3-1.6,7.5-4.1,10-5.4,10-5.6,12.9-6.3,24-6C-820.15-418.47-818.25-418.07-812.95-415.57Zm-357.6,213.3c4.7,2.6,9.4,5.2,10.3,5.8s3.6,2.1,6,3.4c9.7,5.3,31,17.1,36.3,20.1,2.2,1.2,10.8,6,19,10.5,23.9,13.2,24.9,13.7,26,14.5.6.4,4,2.3,7.8,4.4s9.7,5.2,13.5,7.2,7.2,4,7.7,4.4,3.5,2.1,6.5,3.7c7,3.9,32.1,17.7,38,21,8.5,4.8,29.2,16.2,36.8,20.4,2.4,1.3,5.1,2.9,6,3.4s9.8,5.5,19.7,11,18.8,10.4,19.7,11,5.4,3,10,5.4,10,5.5,12,6.8,4,2.3,4.2,2.3a46.18,46.18,0,0,1,5.8,3.1c5.2,3.1,11.5,6.6,23.8,13.2a74,74,0,0,1,8.8,5.6l2.2,1.9v156.9c0,171.6-.3,163.8,5.7,169.8,8.6,8.5,20,8.5,28.6,0,6-6,5.7,1.8,5.7-169.7V-23.07l2.4-2.2c1.3-1.2,6.2-4.1,10.8-6.5s9.7-5.1,11.3-6.1,6.2-3.5,10-5.5,7.5-4.2,8-4.6,4.2-2.4,8-4.5c13-7,18-9.8,19-10.5.6-.4,4.2-2.4,8-4.5s10.8-5.9,15.5-8.5c9-5,14.1-7.8,23-12.8,3-1.6,10.4-5.7,16.4-9.1s11.1-6.1,11.3-6.1a31.3,31.3,0,0,0,4.1-2.3c2-1.3,6.7-4,10.5-6s9.7-5.4,13.5-7.4,8.4-4.7,10.4-6a23.68,23.68,0,0,1,4.3-2.3c.2,0,3.7-1.9,7.7-4.3s10.7-6,14.8-8.1,9.2-5,11.2-6.3a33.79,33.79,0,0,1,4.3-2.3,23.68,23.68,0,0,0,4.3-2.3c3.5-2.2,7.9-4.7,24-13.3,3.7-2.1,7.2-4,7.7-4.4s3.7-2.2,7-4,8-4.4,10.5-5.8c8.7-4.8,22.6-12.5,27-15,20.1-11.2,24.1-13.2,25-12.7.7.4,1,64.7,1,184.3,0,174.2-.1,184-1.8,188.7-5,13.8-11.6,20.6-29.4,30.4-16.6,9.1-32.3,17.8-35.8,20-1.9,1.1-4.2,2.4-5,2.8-1.4.6-14.1,7.6-22.4,12.3-2.2,1.2-6,3.3-8.5,4.7s-6.2,3.4-8.1,4.5-6.4,3.6-10,5.6-9.9,5.4-14,7.7c-9.9,5.5-14.6,8.2-32,17.8-8,4.4-16.3,9.1-18.5,10.4s-4.7,2.6-5.5,3-4,2.1-7,3.8-9.5,5.4-14.5,8-10.7,5.9-12.7,7.2a36.08,36.08,0,0,1-4.2,2.3c-.2,0-4.6,2.4-9.7,5.3s-12.5,7.1-16.4,9.2-8.8,4.9-11,6.1-5.8,3.2-8,4.4c-6.9,3.8-14.7,8.1-22.5,12.5-40.8,22.9-40.9,22.9-54,22.9-11.1,0-14.5-1.1-29.7-9.5-5.6-3.1-10.8-5.9-11.5-6.3s-2.6-1.4-4.3-2.4-10-5.7-18.5-10.4-17.3-9.5-19.5-10.8c-7.3-4.2-24.1-13.4-38.2-21.1-3.2-1.8-6.2-3.5-6.8-3.9s-4.1-2.4-8-4.5c-10.7-5.8-17.3-9.4-22.7-12.6a51.73,51.73,0,0,0-5.3-2.9,59.69,59.69,0,0,1-5.7-3.1c-5.4-3.2-13.9-7.9-32.3-17.9-3.3-1.8-6.4-3.6-7-4s-4.1-2.4-8-4.5-10.4-5.7-14.5-8-9.7-5.5-12.5-7-8.8-4.9-13.5-7.5-11.6-6.4-15.5-8.5-7.4-4.1-8-4.5-3.6-2.1-6.7-3.9c-11.9-6.4-17.5-9.5-24.8-13.6-4.1-2.3-8.2-4.5-9-4.9-12.6-5.9-22.9-16.6-26.9-28.1-2.1-5.9-2.1-6-2.1-189.5,0-101,.3-184,.7-184.3C-1179.75-207.27-1179.75-207.27-1170.55-202.27Z" transform="translate(1555.36 472.44)"/><path class="cls-1" d="M-335.12,6.23c-17.5,5-18.9,29.9-2,37.1,6.7,2.9,37.5,19.6,43.8,23.8a32.49,32.49,0,0,0,4.8,2.9,12.5,12.5,0,0,1,3.2,1.9c1.5,1,7.7,5.1,13.7,9.1,40.6,27,71.3,57.3,90.9,89.8,4.2,7,10.4,19.3,11.7,23.2.4,1.4,1.7,5,2.8,8,6.4,16.9,9.9,41.2,8.1,56.6-1.7,14.7-2.7,21.1-3.4,22.2a34.21,34.21,0,0,0-1.5,5.4c-3.4,16.2-21,49.7-34.1,64.8-14.5,16.7-18.6,21.1-26.4,28.3a350.87,350.87,0,0,1-35.9,29.4c-7.1,5.1-12.8,10.1-14.4,12.5-8.6,12.9.9,29.8,16.7,29.8a21.91,21.91,0,0,0,8-1.5,212.9,212.9,0,0,0,18-12.2c.8-.7,6.7-5.4,13-10.4,80-64.1,113.5-141.9,94.8-219.9-3.5-14.7-6.8-23.6-14.4-39.5-24.3-50.7-75.1-100-142.9-138.7-6-3.5-11.8-6.8-12.7-7.3s-8.2-4.2-16-8.2C-324.22,5.93-329.22,4.43-335.12,6.23Z" transform="translate(1555.36 472.44)"/><path class="cls-1" d="M-1336.41,6.73c-2.3.4-24.2,11-32,15.5-1.9,1.1-7.5,4.3-12.5,7s-9.7,5.6-10.5,6.2-5.1,3.4-9.5,6.1a414.77,414.77,0,0,0-65.5,50.9c-20.8,20-33.1,35.4-49.7,62.1-1.5,2.4-9.3,18.2-12.1,24.5-4.4,9.9-9.4,27.8-12.1,43.6-1.4,7.9-1.4,44.9,0,53.3,5.2,31.1,15.3,55.4,35.5,85.6a119.23,119.23,0,0,0,7.1,10c1,1.1,4.3,5.2,7.4,9,10.9,13.6,33.6,35.4,50.9,48.9,4.7,3.7,9.3,7.3,10.3,8.2,2.5,2.1,32.5,22.4,33.1,22.4a32.49,32.49,0,0,1,4.8,2.9c2.4,1.6,8.4,5.1,13.3,7.8s10.6,5.9,12.5,7c10.6,6,41.6,21,52.5,25.5,2.8,1.1,6.9,3,9.3,4,5.1,2.4,36.4,14.5,40.7,15.8,1.7.5,10.4,3.4,19.5,6.4,23.4,7.8,45.8,14.5,64,19.1,3.6.9,8.1,2.1,10,2.6,13,3.3,36.2,8.3,58,12.4,4.7.9,11.3,2.2,14.7,3a54.37,54.37,0,0,0,9.3,1.5,62.65,62.65,0,0,1,9.8,1.4c24.9,5.2,82,11.2,138.2,14.7,29.6,1.8,94.6,2.3,119.5.9,12.1-.6,29.4-1.5,38.5-2,26.8-1.4,50.5-3.6,94.7-8.9,4.5-.6,10.8-1.5,14-2s10.5-1.7,16.3-2.6c14.8-2.3,31.8-5.5,64-12.2,4.1-.9,14.7-3.4,23.5-5.5s17.6-4.4,19.5-4.8,6.7-1.8,10.5-3c10.2-3.1,12.5-3.5,12.5-1.9-.1,1.2-28.1,24.1-62.3,50.8-4.5,3.6-9.4,7.8-11,9.5-3.4,3.8-5.1,9.7-4.4,15.9.7,5.5,3,9.2,8.4,13.3,3.2,2.4,4.6,2.8,10.3,2.8s7.3-.3,11-2.8,19.7-14.9,33.5-26.2c2.2-1.8,12.3-9.9,22.5-17.9s20.3-16.2,22.5-18,15.7-12.6,30-23.9,28.7-22.9,32-25.6,9.6-7.7,14-11.2a94.12,94.12,0,0,0,11.3-10.7c2.8-3.7,3.2-5,3.2-10.2,0-9.1-3.7-15.2-11-18.3-4.1-1.7-20-3.5-56.5-6.6-5.5-.4-15.2-1.3-21.5-1.9s-18.2-1.8-26.5-2.6-22-2.1-30.5-2.9-23.4-2.3-33-3.1-21.4-2-26.1-2.5a158.78,158.78,0,0,0-16.6-1c-9.3,0-12.5,1.6-18,8.8-2.8,3.7-3.3,5.2-3.3,9.8A20.16,20.16,0,0,0-635,487c1.6.6,13.1,2,25.5,3.1s29.8,2.6,38.6,3.5c19.1,1.7,38.3,3.3,40.8,3.4,3.9,0-.1,3.6-5.8,5.1-1.6.4-6.1,1.7-10,2.8-7.6,2.3-43.4,11.1-55.5,13.7-4.1.9-10.2,2.2-13.5,2.9-5.6,1.3-9,1.9-30.2,6-21.6,4.1-54.1,8.5-87.8,11.9-31.9,3.3-38.6,3.8-58,4.6-11,.5-30.3,1.4-43,2-54.3,2.8-156.4-3.2-222-13.1-21.1-3.2-26.7-4-33.7-5.4-4.3-.8-11.5-2.2-16-3s-11.2-2.2-14.8-3c-18.5-4-22.5-4.9-34-7.6-15.5-3.6-27-6.6-38.6-10.3a36.92,36.92,0,0,0-6.8-1.6,16.64,16.64,0,0,1-4.8-1.4c-1.8-.8-8-2.8-13.8-4.6-11.2-3.4-34-11.1-40.2-13.5-2.1-.8-5.5-2.1-7.5-2.9s-9.3-3.7-16-6.5-12.4-5.1-12.6-5.1c-1.9,0-46.9-22.1-56.5-27.7a84.9,84.9,0,0,0-7.8-4.3c-.7,0-29.9-18.3-34.1-21.4-2.3-1.7-6.8-4.9-9.9-7.1-7.7-5.4-21.8-17-33.3-27.4-19.7-18-39.9-44-49.7-64-5-10.3-11.4-26.7-11.4-29.4a10,10,0,0,0-1.1-3.9c-1.2-2.2-2.2-8.4-3.9-24.6-1.8-15.4,1.7-39.4,8.1-56.2,1.1-3,2.4-6.6,2.8-8,1.3-3.9,7.5-16.2,11.7-23.2,19.4-32.1,51-63.3,91.1-89.9,13.7-9.1,21.3-13.8,27.8-17.4,2.8-1.5,5.5-3.1,6-3.5s7.3-4,14.9-8,14.9-7.7,16-8.4c9.9-5.4,13.9-17.1,9-26.7-1.9-3.9-7.8-8.6-12.1-9.8C-1331,6-1332,6-1336.41,6.73Z" transform="translate(1555.36 472.44)"/></svg>