<svg xmlns="http://www.w3.org/2000/svg" xmlns:xlink="http://www.w3.org/1999/xlink" viewBox="0 0 403.44 470"><defs><style>.cls-1{isolation:isolate;}.cls-2{fill:url(#Gradient_bez_nazwy_586);}.cls-3{fill:url(#linear-gradient);}.cls-4{fill:url(#Gradient_bez_nazwy_452);}.cls-5{fill:url(#Gradient_bez_nazwy_450);}.cls-6{mix-blend-mode:multiply;fill:url(#Gradient_bez_nazwy_589);}.cls-7{fill:url(#Gradient_bez_nazwy_452-2);}</style><linearGradient id="Gradient_bez_nazwy_586" x1="141.8" y1="19.1" x2="420.39" y2="475.33" gradientUnits="userSpaceOnUse"><stop offset="0" stop-color="#fbea7f"/><stop offset="0.33" stop-color="#ea8800"/><stop offset="0.67" stop-color="#ff840f"/><stop offset="1" stop-color="#fff"/></linearGradient><linearGradient id="linear-gradient" x1="61.67" y1="23.54" x2="340.25" y2="479.77" gradientUnits="userSpaceOnUse"><stop offset="0" stop-color="#fbea7f"/><stop offset="0.26" stop-color="#dd333b"/><stop offset="0.68" stop-color="#7a136a"/><stop offset="0.86" stop-color="#4f146c"/><stop offset="1" stop-color="#2d166e"/></linearGradient><linearGradient id="Gradient_bez_nazwy_452" x1="14.31" y1="52.46" x2="292.89" y2="508.69" xlink:href="#linear-gradient"/><linearGradient id="Gradient_bez_nazwy_450" x1="-63.59" y1="142.96" x2="214.99" y2="599.19" gradientUnits="userSpaceOnUse"><stop offset="0.33" stop-color="#fbea7f"/><stop offset="0.62" stop-color="#dd333b"/><stop offset="0.68" stop-color="#7a136a"/><stop offset="0.86" stop-color="#4f146c"/><stop offset="1" stop-color="#2d166e"/></linearGradient><linearGradient id="Gradient_bez_nazwy_589" x1="255.67" y1="298" x2="574.34" y2="182.01" gradientUnits="userSpaceOnUse"><stop offset="0" stop-opacity="0.4"/><stop offset="0.15" stop-opacity="0.2"/><stop offset="1" stop-opacity="0"/></linearGradient><linearGradient id="Gradient_bez_nazwy_452-2" x1="32.28" y1="448.56" x2="310.87" y2="-7.67" xlink:href="#linear-gradient"/></defs><g class="cls-1"><g id="Warstwa_1" data-name="Warstwa 1"><path class="cls-2" d="M437.32,289q-17.85-30.15-44.65-47.61t-68.33-36.92q-37.83-17.21-55.08-29.84t-15.39-31.87c1-10.27,4.46-17.71,10.52-22.29s14-6.44,23.84-5.5q17.28,1.65,26.91,12.91a34.37,34.37,0,0,1,4.24,6.28c9.29,17.49,27.47,28.45,47.19,30.33l7.13.69c26.38,2.51,47.33-11.74,57.44-31.46,10.83-21,9.39-48.17-10.77-67.89-.29-.26-.6-.54-.88-.82q-43-41.31-121.22-48.77-48.13-4.56-87.45,7.54t-64,40.51Q122.06,92.7,118.06,135q-3.11,32.46,5.52,57.38h48.3a14.78,14.78,0,0,1,14.76,14.76v2.44a14.76,14.76,0,0,1-14.76,14.76H141.23a127,127,0,0,0,34.2,32q26.52,16.77,68.11,35.61,39.15,17.29,56.65,30.3t15.58,33.54c-1,10.24-4.84,17.87-11.56,22.83s-15.64,6.91-26.76,5.87q-18.6-1.79-30.33-14.54A37.51,37.51,0,0,1,241,361a58.07,58.07,0,0,0-46.66-31.68l-5.41-.5c-54.76-5.22-86.23,61.2-47.16,99.89,1.66,1.63,3.36,3.26,5.09,4.83q47.38,42.68,126.29,50.21a251.46,251.46,0,0,0,43.37.6A175.49,175.49,0,0,0,364,474.25q38.91-14.42,61.08-43.36t25.78-66.8Q455.18,319.21,437.32,289Z" transform="translate(-48.28 -15)"/><rect class="cls-3" x="31.12" y="41.02" width="101.94" height="31.96" rx="14.76"/><rect class="cls-4" y="96.53" width="101.94" height="31.96" rx="14.76"/><path class="cls-5" d="M74,347.38A12.79,12.79,0,1,1,61.23,334.6,12.79,12.79,0,0,1,74,347.38Z" transform="translate(-48.28 -15)"/><path class="cls-6" d="M450.89,364.09q-3.63,37.83-25.78,66.8T364,474.25a175.49,175.49,0,0,1-47.48,10.08s0,0,.06,0C325.7,481,384.12,458.48,406,397c2.87-8.08,20.53-57.82-3.62-100-9.29-16.22-36.52-31.93-90.59-62.68-73.92-42-92.45-52.55-98.7-75.59-5.08-18.75-.51-40.23,11-55.28C241.53,80.52,271.69,78.66,282.81,78c7.95-.49,37-2.28,58.27,16.22,11.09,9.64,10,16,19,25,10.33,10.23,30,19.86,71.05,14.55v0c-10.11,19.72-31.06,34-57.44,31.46l-7.13-.69c-19.72-1.88-37.9-12.84-47.19-30.33a34.37,34.37,0,0,0-4.24-6.28q-9.61-11.26-26.91-12.91-14.79-1.41-23.84,5.5c-6.06,4.58-9.54,12-10.52,22.29Q252,162,269.26,174.64t55.08,29.84q41.49,19.5,68.33,36.92T437.32,289Q455.17,319.21,450.89,364.09Z" transform="translate(-48.28 -15)"/><rect class="cls-7" x="17.98" y="372.53" width="101.94" height="31.96" rx="14.76"/></g></g></svg>