<?xml version="1.0" standalone="no"?>
<!DOCTYPE svg PUBLIC "-//W3C//DTD SVG 20010904//EN"
 "http://www.w3.org/TR/2001/REC-SVG-20010904/DTD/svg10.dtd">
<svg version="1.0" xmlns="http://www.w3.org/2000/svg"
 width="256.000000pt" height="256.000000pt" viewBox="0 0 256.000000 256.000000"
 preserveAspectRatio="xMidYMid meet">

<g transform="translate(0.000000,256.000000) scale(0.100000,-0.100000)"
fill="#000000" stroke="none">
<path d="M1363 2314 c-42 -20 -74 -42 -78 -53 -5 -17 -10 -18 -35 -10 -24 9
-46 5 -129 -26 -97 -36 -104 -37 -168 -27 -38 5 -73 7 -79 5 -6 -2 -20 -27
-32 -56 -19 -43 -31 -57 -73 -80 l-52 -28 -49 31 c-46 28 -53 30 -84 18 -39
-14 -53 -47 -37 -87 6 -14 13 -33 16 -41 4 -10 -18 -33 -72 -73 -43 -33 -102
-83 -130 -111 l-52 -53 45 -193 c25 -107 42 -198 38 -204 -11 -18 -1 -119 13
-142 10 -16 12 -41 8 -94 l-6 -71 36 6 c45 9 44 27 16 -243 -12 -112 -19 -205
-16 -208 3 -3 36 4 75 15 38 12 76 21 85 21 31 0 229 -100 330 -166 60 -39
141 -105 195 -159 l93 -91 87 86 c129 128 283 229 468 308 l90 39 118 -34 c65
-19 120 -33 122 -31 7 7 -29 283 -38 289 -5 3 -34 12 -63 18 -47 11 -53 15
-57 41 -3 16 0 50 6 75 l11 45 45 0 46 0 -12 98 c-7 53 -13 100 -14 104 0 3
12 2 28 -4 23 -9 36 -6 80 16 56 28 59 36 41 98 -12 44 -56 73 -96 63 -23 -5
-25 -4 -19 17 3 13 20 88 38 167 l33 143 -60 55 c-37 33 -55 57 -47 60 18 7
16 79 -3 87 -35 13 -14 42 65 90 54 33 80 55 80 67 0 11 4 19 8 19 8 0 52 177
52 206 0 18 -192 -37 -220 -64 -14 -12 -45 -55 -70 -94 l-45 -71 -60 -1 -60
-1 -3 -32 c-2 -18 -5 -33 -8 -33 -2 0 -29 14 -59 31 l-55 31 0 49 c0 80 -47
155 -122 194 -62 32 -78 31 -165 -11z m817 -88 c-23 -70 -36 -87 -52 -65 -8
11 -9 10 -4 -3 3 -10 1 -18 -4 -18 -5 0 -7 -6 -4 -13 5 -15 -9 -29 -84 -81
-52 -36 -53 -37 -76 -18 -22 17 -23 20 -10 48 9 18 10 22 2 11 -7 -10 -18 -26
-25 -35 -6 -9 -14 -15 -17 -12 -7 7 103 180 114 180 5 0 11 -8 13 -17 3 -10 5
-4 6 14 1 31 4 33 79 56 42 13 79 22 81 21 1 -2 -7 -32 -19 -68z m-642 12 l3
-48 -43 0 c-24 0 -49 5 -56 12 -9 9 -12 6 -12 -14 0 -61 -24 -77 -34 -23 -6
31 -9 34 -26 25 -10 -5 -28 -10 -39 -10 -17 0 -20 -9 -26 -65 -5 -40 -3 -70 3
-78 5 -6 11 -30 13 -53 4 -35 2 -40 -13 -36 -16 4 -18 18 -18 126 0 126 6 170
21 160 5 -3 13 6 19 20 10 28 36 34 140 32 l65 -1 3 -47z m32 -65 c-1 -24 -2
-26 -11 -10 -5 9 -7 22 -4 27 10 17 15 11 15 -17z m-589 -19 c97 -29 150 -55
145 -73 -3 -9 -10 -37 -17 -63 -6 -27 -13 -48 -15 -48 -16 0 -53 26 -57 39 -2
11 -30 27 -67 41 -58 22 -63 22 -72 6 -6 -10 -16 -15 -28 -11 -15 5 -23 -7
-45 -67 -43 -114 -50 -105 -10 12 37 106 78 180 100 180 6 0 36 -7 66 -16z
m399 0 c0 -11 -5 -14 -16 -10 -9 3 -23 6 -32 7 -10 1 -7 4 8 9 37 12 40 11 40
-6z m135 7 c-6 -4 -22 -11 -37 -15 -21 -5 -28 -3 -28 9 0 11 11 15 37 15 22 0
33 -4 28 -9z m-60 -61 c-3 -4 5 -10 18 -14 35 -9 45 -7 50 12 3 9 5 -4 6 -30
0 -26 -3 -50 -9 -53 -5 -3 -10 -17 -10 -31 0 -17 -5 -24 -20 -24 -11 0 -20 5
-20 10 0 15 -73 12 -96 -5 -26 -18 -34 -11 -34 31 0 18 -4 36 -10 39 -5 3 -9
25 -9 48 1 23 4 33 6 21 3 -16 10 -20 33 -16 17 2 30 10 30 18 0 7 6 11 14 8
8 -3 17 0 21 6 5 8 11 8 21 -1 7 -6 12 -15 9 -19z m55 5 c0 -8 -4 -15 -10 -15
-5 0 -10 7 -10 15 0 8 5 15 10 15 6 0 10 -7 10 -15z m-870 -50 c27 -14 35 -26
31 -47 0 -5 3 -8 8 -8 9 0 47 -90 43 -102 -1 -5 3 -8 9 -8 8 0 8 -4 -1 -15 -9
-11 -17 -12 -31 -4 -11 5 -24 7 -29 4 -6 -3 -10 1 -10 9 0 9 -4 16 -9 16 -5 0
-15 16 -21 35 -6 19 -16 35 -22 35 -6 0 -9 3 -5 6 3 3 -1 24 -9 46 -8 22 -14
42 -14 44 0 9 33 3 60 -11z m1193 5 c-33 -13 -31 -62 2 -80 14 -7 25 -17 25
-20 0 -13 -30 -33 -37 -26 -4 4 -1 11 7 16 11 7 8 11 -13 21 -20 9 -27 20 -27
40 0 44 10 59 39 58 25 0 25 0 4 -9z m-830 -37 c9 -3 17 -14 17 -24 0 -18 -10
-23 -37 -20 -15 2 -18 -55 -4 -63 5 -4 7 3 4 14 -3 11 0 20 6 20 6 0 11 -5 11
-11 0 -6 7 -17 15 -26 12 -12 19 -13 30 -3 8 7 15 8 15 3 0 -6 -18 -18 -40
-28 -26 -12 -43 -27 -46 -42 -4 -12 -12 -23 -20 -23 -11 0 -12 4 -3 19 18 28
4 49 -37 57 -26 5 -39 3 -45 -7 -13 -21 -11 -29 9 -29 17 0 66 -29 50 -30 -3
0 -32 10 -63 22 -54 21 -56 22 -49 52 11 53 36 107 47 103 7 -2 14 -14 17 -27
7 -29 23 -35 39 -16 10 12 10 20 -3 37 -23 33 -5 50 37 37 18 -5 40 -12 50
-15z m555 -23 c-7 -11 -15 -15 -17 -9 -2 6 3 15 10 20 20 12 21 11 7 -11z
m362 -13 c0 -7 -13 -23 -30 -35 -34 -26 -36 -23 -15 18 16 30 45 41 45 17z
m-820 -64 c-11 -17 -11 -17 -6 0 3 10 6 24 7 30 0 9 2 9 5 0 3 -7 0 -20 -6
-30z m355 27 c4 -6 -12 -10 -40 -10 -28 0 -44 4 -40 10 3 6 21 10 40 10 19 0
37 -4 40 -10z m-415 -20 c0 -5 -2 -10 -4 -10 -3 0 -8 5 -11 10 -3 6 -1 10 4
10 6 0 11 -4 11 -10z m930 -25 c0 -8 -7 -15 -16 -15 -8 0 -12 5 -9 10 4 6 1
18 -7 27 -12 15 -11 15 10 4 12 -6 22 -18 22 -26z m-176 -9 c15 -28 16 -38 6
-57 -13 -23 -12 -24 7 -6 19 16 73 24 73 10 0 -21 -37 -43 -71 -43 -34 0 -40
4 -64 47 l-26 48 21 17 c30 24 33 23 54 -16z m-514 21 c0 -1 9 -49 20 -107 11
-58 20 -115 20 -128 0 -21 -96 -192 -108 -192 -12 0 -123 64 -135 79 -13 14
-56 158 -72 238 -7 36 6 46 103 77 58 20 172 41 172 33z m116 -32 c-4 -14 -2
-25 4 -25 5 0 10 9 10 20 0 16 7 20 36 20 23 0 42 -6 50 -17 8 -11 13 -13 14
-5 0 16 35 16 48 -1 8 -10 7 -28 -3 -68 -8 -29 -20 -88 -26 -130 -9 -63 -14
-76 -27 -73 -10 1 -34 6 -55 9 -22 4 -35 10 -31 17 4 6 -2 5 -16 -2 -34 -18
-52 -6 -38 25 9 19 9 34 1 58 -31 90 -20 197 19 197 17 0 19 -5 14 -25z m464
-15 c7 0 11 -3 7 -6 -10 -10 -45 6 -52 23 -5 15 -4 15 13 0 10 -9 25 -17 32
-17z m-932 14 c13 -4 22 -14 22 -25 0 -18 -2 -18 -35 -2 -52 25 -44 42 13 27z
m816 -62 c11 -21 12 -32 3 -47 -10 -19 -9 -19 8 -5 16 13 18 13 13 0 -2 -8
-14 -16 -26 -18 -16 -3 -26 5 -39 32 -16 35 -16 37 3 51 24 18 21 19 38 -13z
m-950 -2 c5 -5 -11 -6 -35 -3 -24 3 -48 10 -54 16 -7 6 5 7 35 3 25 -4 49 -11
54 -16z m86 -7 c13 -13 11 -13 -15 -7 -16 3 -37 13 -45 21 -13 13 -11 13 15 7
17 -3 37 -13 45 -21z m-198 -58 c-20 -67 -39 -61 -22 7 17 67 20 72 30 62 6
-6 3 -32 -8 -69z m922 41 c-9 -15 -19 -25 -21 -22 -5 5 30 56 35 51 2 -2 -4
-15 -14 -29z m-827 4 c30 0 34 -3 31 -22 -3 -20 -8 -23 -41 -20 -26 3 -45 -2
-57 -13 -18 -16 -18 -15 -8 25 8 29 15 40 25 36 8 -4 30 -6 50 -6z m896 -47
c19 -6 21 -12 9 -29 -5 -9 -17 -8 -45 3 -31 13 -35 18 -26 30 7 8 19 11 28 7
9 -3 24 -9 34 -11z m-685 -108 c-2 -1 -12 1 -24 4 -18 5 -19 10 -11 41 l9 35
14 -39 c8 -22 13 -40 12 -41z m-88 -91 c13 -32 13 -31 -5 -31 -8 0 -19 13 -24
29 -8 22 -7 28 5 28 8 0 19 -12 24 -26z m-302 1 c3 -3 2 -8 -1 -12 -4 -3 -22
1 -40 11 l-32 17 34 -6 c19 -3 37 -7 39 -10z m896 -7 c30 -16 5 -29 -34 -18
-19 6 -56 10 -82 10 -39 0 -46 3 -41 16 5 13 16 15 72 9 36 -4 74 -12 85 -17z
m412 7 c-22 -17 -46 -20 -46 -6 0 11 18 19 45 20 20 0 20 0 1 -14z m-874 -20
c5 -22 2 -25 -24 -25 -16 0 -27 3 -25 8 2 4 7 15 10 25 9 25 34 21 39 -8z
m-459 -4 c10 -9 -2 -41 -15 -41 -25 0 -46 21 -41 40 4 16 11 19 27 14 11 -3
25 -9 29 -13z m1370 -1 c3 -13 -1 -24 -13 -30 -28 -15 -37 -12 -43 11 -4 14 1
23 16 29 32 13 34 12 40 -10z m-515 -16 c17 -3 32 -9 32 -15 0 -5 11 -7 25 -3
35 9 32 -12 -5 -31 -37 -19 -48 -19 -101 4 -24 10 -52 21 -63 25 -14 5 -16 9
-7 20 12 14 25 14 119 0z m-643 -30 c14 -6 13 -10 -10 -34 l-26 -27 23 -7 c16
-5 19 -9 9 -13 -11 -4 -11 -7 0 -13 17 -11 -6 -40 -32 -40 -22 0 -22 0 -9 34
8 21 6 27 -11 37 -21 11 -21 11 7 40 15 16 29 29 30 29 1 0 10 -3 19 -6z m891
-21 c-10 -10 -19 5 -10 18 6 11 8 11 12 0 2 -7 1 -15 -2 -18z m-838 -15 c-2
-8 6 -12 23 -10 28 3 46 -13 46 -40 0 -23 1 -23 -58 11 -45 26 -49 30 -33 40
24 13 24 13 22 -1z m819 -17 c10 -16 9 -20 -8 -24 -10 -3 -19 -1 -19 3 0 5 -3
15 -6 24 -9 23 19 20 33 -3z m-627 -36 c0 4 6 3 13 -3 6 -5 27 -13 45 -17 19
-4 32 -13 32 -22 0 -13 -9 -14 -52 -9 -29 4 -53 8 -54 9 -1 1 -4 15 -8 31 -6
26 -5 28 8 17 9 -8 16 -10 16 -6z m1089 -14 c11 -7 7 -13 -17 -25 -32 -17 -64
-21 -75 -9 -4 3 10 14 30 24 46 21 45 21 62 10z m-1428 -19 c-7 -2 -18 1 -23
6 -8 8 -4 9 13 5 13 -4 18 -8 10 -11z m174 8 c3 -6 -1 -7 -9 -4 -18 7 -21 14
-7 14 6 0 13 -4 16 -10z m545 -47 c0 -30 -3 -33 -31 -33 l-30 0 20 26 c12 15
21 36 21 48 0 17 2 18 10 6 5 -8 10 -30 10 -47z m90 12 c0 -38 -3 -45 -20 -45
-25 0 -27 31 -4 65 9 14 18 25 20 25 2 0 4 -20 4 -45z m-290 22 c0 -15 -57
-73 -65 -66 -6 7 46 79 57 79 4 0 8 -6 8 -13z m63 -33 c-16 -22 -34 -34 -49
-34 -31 0 -30 8 7 46 20 21 37 30 50 27 17 -5 17 -7 -8 -39z m-368 -1 c25 -16
45 -34 45 -40 0 -17 0 -17 -54 13 -25 14 -46 32 -46 40 0 19 2 18 55 -13z
m1254 -5 c6 -17 10 -32 9 -32 -2 -1 -22 -11 -44 -24 l-42 -22 -10 39 c-9 39
-9 39 27 54 49 21 48 21 60 -15z m-1340 13 c24 -15 -6 -41 -45 -41 -34 0 -34
0 -18 25 17 26 39 31 63 16z m126 -1 c3 -5 2 -10 -4 -10 -5 0 -13 5 -16 10 -3
6 -2 10 4 10 5 0 13 -4 16 -10z m33 -30 c-7 -10 -14 -17 -17 -15 -4 4 18 35
25 35 2 0 -1 -9 -8 -20z m112 -6 c0 -2 -7 -4 -15 -4 -8 0 -15 4 -15 10 0 5 7
7 15 4 8 -4 15 -8 15 -10z m-310 -129 l0 -45 -40 0 c-48 0 -44 14 -66 -225 -9
-99 -19 -183 -23 -186 -3 -3 -32 -13 -63 -22 -69 -19 -65 -42 -38 197 27 242
28 230 -15 223 -33 -5 -35 -4 -35 22 0 16 7 34 15 41 8 7 15 19 15 26 0 11 25
14 125 14 l125 0 0 -45z m265 -112 c-4 -87 -10 -161 -14 -164 -3 -4 -25 -9
-48 -12 l-43 -5 0 70 c0 51 -3 69 -12 66 -8 -3 -14 -25 -16 -54 -4 -76 -9 -90
-34 -91 -13 -1 -34 -5 -47 -8 l-24 -6 7 103 c4 57 9 138 13 181 l6 77 109 0
110 0 -7 -157z m265 92 c0 -43 -4 -64 -11 -62 -21 4 -20 -20 1 -26 18 -5 20
-13 20 -80 l0 -74 -111 -6 c-61 -4 -114 -5 -118 -3 -3 2 -5 74 -3 160 l3 156
109 0 110 0 0 -65z m140 35 c0 -19 5 -30 14 -30 8 0 16 -14 20 -33 5 -28 11
-33 36 -35 28 -2 30 0 30 33 0 22 5 35 13 35 9 0 12 10 9 30 -4 30 -4 30 47
30 49 0 51 -1 51 -27 0 -16 4 -77 10 -138 5 -60 10 -128 12 -150 l3 -40 -35 4
c-61 6 -69 15 -72 83 -3 67 -24 93 -30 36 -2 -27 -7 -32 -23 -30 -39 6 -45 12
-45 42 0 20 -5 30 -15 30 -12 0 -15 -14 -15 -66 l0 -65 -47 3 -48 3 -3 158 -3
157 46 0 c43 0 45 -1 45 -30z m504 14 c3 -9 6 -31 6 -50 l0 -34 -55 0 c-64 0
-61 11 -44 -152 16 -154 10 -143 79 -158 38 -8 61 -18 64 -29 5 -15 9 -87 7
-103 -1 -4 -25 1 -53 11 -29 10 -85 26 -125 35 l-72 18 -5 41 c-9 67 -36 375
-36 408 l0 29 114 0 c95 0 115 -3 120 -16z m-704 -384 c0 -23 -4 -30 -20 -30
-13 0 -20 -7 -20 -20 0 -11 -7 -20 -15 -20 -10 0 -15 10 -15 34 0 52 9 66 41
66 26 0 29 -4 29 -30z m40 -10 c0 -29 4 -40 15 -40 8 0 15 -4 15 -10 0 -5 -13
-10 -28 -10 -25 0 -28 4 -29 38 -2 44 3 62 17 62 5 0 10 -18 10 -40z"/>
<path d="M2120 2250 c0 -5 7 -7 15 -4 8 4 15 8 15 10 0 2 -7 4 -15 4 -8 0 -15
-4 -15 -10z"/>
<path d="M2134 2209 c-3 -6 -1 -16 5 -22 8 -8 11 -5 11 11 0 24 -5 28 -16 11z"/>
<path d="M1971 2127 c-13 -21 -12 -21 5 -5 10 10 16 20 13 22 -3 3 -11 -5 -18
-17z"/>
<path d="M1377 2034 c-4 -4 -7 -15 -7 -23 0 -13 12 -16 60 -17 56 -1 61 1 58
20 -3 18 -11 21 -53 24 -28 2 -54 0 -58 -4z m93 -16 c0 -9 -16 -13 -45 -13
-43 -1 -53 4 -38 18 12 13 83 8 83 -5z"/>
<path d="M1175 1873 c-45 -10 -116 -35 -112 -39 2 -2 31 2 63 10 32 8 74 16
93 18 39 3 43 -3 62 -125 10 -63 9 -70 -14 -110 -24 -42 -39 -77 -33 -77 2 0
20 27 40 60 l38 61 -19 102 -18 102 -40 2 c-22 0 -49 -1 -60 -4z"/>
<path d="M1386 1825 c-3 -9 -6 -22 -5 -28 0 -7 5 -1 10 12 5 13 8 26 5 28 -2
2 -6 -3 -10 -12z"/>
<path d="M1482 1800 c0 -14 2 -19 5 -12 2 6 2 18 0 25 -3 6 -5 1 -5 -13z"/>
<path d="M1457 1700 c-3 -11 -1 -20 4 -20 5 0 9 9 9 20 0 11 -2 20 -4 20 -2 0
-6 -9 -9 -20z"/>
<path d="M890 1150 c0 -12 7 -20 17 -20 13 0 14 -3 5 -12 -14 -14 -16 -68 -3
-68 5 0 11 7 15 15 3 8 10 15 16 15 5 0 10 -7 10 -15 0 -8 5 -15 10 -15 15 0
12 67 -2 73 -8 3 -6 6 5 6 21 1 24 41 2 41 -8 0 -15 -7 -15 -15 0 -8 -7 -15
-15 -15 -8 0 -15 7 -15 15 0 8 -7 15 -15 15 -8 0 -15 -9 -15 -20z"/>
<path d="M1190 1121 c0 -21 5 -31 16 -31 11 0 14 8 12 27 -4 39 -28 42 -28 4z"/>
<path d="M1190 1001 c0 -21 5 -31 16 -31 11 0 14 8 12 27 -4 39 -28 42 -28 4z"/>
</g>
</svg>
